<?xml version="1.0" standalone="no"?><!DOCTYPE svg PUBLIC "-//W3C//DTD SVG 1.1//EN" "http://www.w3.org/Graphics/SVG/1.1/DTD/svg11.dtd"><svg viewBox="0 0 101 32" version="1.1" xmlns="http://www.w3.org/2000/svg" xmlns:xlink="http://www.w3.org/1999/xlink" style="block-size:62px;border-block-end-color:rgb(0, 76, 151);border-block-start-color:rgb(0, 76, 151);border-bottom-color:rgb(0, 76, 151);border-inline-end-color:rgb(0, 76, 151);border-inline-start-color:rgb(0, 76, 151);border-left-color:rgb(0, 76, 151);border-right-color:rgb(0, 76, 151);border-top-color:rgb(0, 76, 151);caret-color:rgb(0, 76, 151);color:rgb(0, 76, 151);column-rule-color:rgb(0, 76, 151);cursor:pointer;display:block;font-size:16px;font-weight:700;height:62px;inline-size:110px;line-height:24px;min-block-size:auto;min-height:auto;min-inline-size:auto;min-width:auto;outline-color:rgb(0, 76, 151);perspective-origin:55px 31px;text-decoration:none solid rgb(0, 76, 151);text-decoration-color:rgb(0, 76, 151);transform-origin:55px 31px;width:110px;-webkit-text-emphasis-color:rgb(0, 76, 151);-webkit-text-fill-color:rgb(0, 76, 151);-webkit-text-stroke-color:rgb(0, 76, 151);">  <g fill="none" fill-rule="evenodd" style="block-size:auto;border-block-end-color:rgb(0, 76, 151);border-block-start-color:rgb(0, 76, 151);border-bottom-color:rgb(0, 76, 151);border-inline-end-color:rgb(0, 76, 151);border-inline-start-color:rgb(0, 76, 151);border-left-color:rgb(0, 76, 151);border-right-color:rgb(0, 76, 151);border-top-color:rgb(0, 76, 151);caret-color:rgb(0, 76, 151);color:rgb(0, 76, 151);column-rule-color:rgb(0, 76, 151);cursor:pointer;fill:none;fill-rule:evenodd;font-size:16px;font-weight:700;height:auto;inline-size:auto;line-height:24px;outline-color:rgb(0, 76, 151);overflow-x:visible;overflow-y:visible;perspective-origin:0px 0px;text-decoration:none solid rgb(0, 76, 151);text-decoration-color:rgb(0, 76, 151);transform-origin:0px 0px;width:auto;-webkit-text-emphasis-color:rgb(0, 76, 151);-webkit-text-fill-color:rgb(0, 76, 151);-webkit-text-stroke-color:rgb(0, 76, 151);">  <path d="M97.4336703 15.4338462v-.0397363c1.005011-.3741539 1.7346813-1.5173626 1.7346813-2.8374506 0-1.3605274-.5914725-3.4686593-4.0007032-3.4686593H83.5210549v12.2676044L78.2463297 9.088h-5.735033L67.988044 19.5055824 63.5083956 9.088h-5.7343297l-4.6843077 10.7882198c.0798242-.334066.1258902-.6952088.1258902-1.0922198 0-2.482989-1.576088-3.5474286-4.1979781-4.0007033-1.3788132-.2363077-4.9853187-.7683516-6.1679121-.9656264-.7092747-.1185055-1.0443956-.3945494-1.0443956-.8671648 0-.9262418.8671649-1.3795165 2.4439561-1.3795165 2.1475165 0 2.9162198.6698901 3.0540659 1.6358681h5.3207912c-.2953846-3.33081314-3.3698461-4.55279117-8.4733187-4.55279117-6.1686153 0-7.3118241 2.62118677-7.3118241 4.47367037 0 2.0891428 1.1231648 3.5470769 4.0200439 3.9806593l4.6906374.7092747c1.6355165.2567033 2.2266373.5127033 2.2266373 1.2617143 0 1.2015824-1.2807032 1.477978-2.4632967 1.477978-2.4436044 0-3.0350769-.6702417-3.1528791-1.7343296h-5.5574505c.2756923 3.9215824 3.7243077 4.7694066 8.4933626 4.7694066 1.5447912 0 5.8078242-.0284836 7.4552967-2.4766594l-.8872088 2.0430769h5.0257583l.8478241-2.2864175h6.1482198l.8474725 2.2864175h6.8937143l.8474726-2.2864175h6.1485714l.8478242 2.2864175h15.5024175c4.3157803 0 5.1038242-2.5227252 5.1038242-4.197978 0-1.9903296-.9652747-3.1926154-2.4436044-3.5270329zm-38.7927912 2.5223736l1.9509451-5.3211429h.0397362l1.9509451 5.3211429h-3.9416264zm14.7375824 0l1.9509451-5.3211429h.0393846l1.9509451 5.3211429h-3.9412748zm14.8325275-5.8338462h4.6705934c1.005011 0 1.4385934.5524396 1.4385934 1.1825934 0 .6501978-.4335824 1.2026374-1.4385934 1.2026374H88.210989v-2.3852308zm5.0447473 8.0014066H88.210989v-2.8571428h5.0447473c.9860219 0 1.6555604.472967 1.6555604 1.3988571 0 .9262418-.6695385 1.4582857-1.6555604 1.4582857zM16.0418462 31.3167473c8.4592527 0 15.3167472-6.8578462 15.3167472-15.3167473 0-8.4589011-6.8574945-15.31674725-15.3167472-15.31674725C7.58259341.68325275.72545055 7.5410989.72545055 16S7.5825934 31.3167473 16.0418462 31.3167473" fill="#CDCDCD" style="block-size:auto;border-block-end-color:rgb(0, 76, 151);border-block-start-color:rgb(0, 76, 151);border-bottom-color:rgb(0, 76, 151);border-inline-end-color:rgb(0, 76, 151);border-inline-start-color:rgb(0, 76, 151);border-left-color:rgb(0, 76, 151);border-right-color:rgb(0, 76, 151);border-top-color:rgb(0, 76, 151);caret-color:rgb(0, 76, 151);color:rgb(0, 76, 151);column-rule-color:rgb(0, 76, 151);cursor:pointer;d:path(&quot;M 97.4337 15.4338 V 15.3941 C 98.4387 15.02 99.1684 13.8767 99.1684 12.5567 C 99.1684 11.1961 98.5769 9.088 95.1676 9.088 H 83.5211 V 21.3556 L 78.2463 9.088 H 72.5113 L 67.988 19.5056 L 63.5084 9.088 H 57.7741 L 53.0898 19.8762 C 53.1696 19.5422 53.2156 19.181 53.2156 18.784 C 53.2156 16.301 51.6396 15.2366 49.0177 14.7833 C 47.6389 14.547 44.0324 14.0149 42.8498 13.8177 C 42.1405 13.6992 41.8054 13.4231 41.8054 12.9505 C 41.8054 12.0243 42.6725 11.571 44.2493 11.571 C 46.3968 11.571 47.1655 12.2409 47.3034 13.2069 H 52.6242 C 52.3288 9.87604 49.2543 8.65407 44.1509 8.65407 C 37.9822 8.65407 36.839 11.2753 36.839 13.1277 C 36.839 15.2169 37.9622 16.6748 40.8591 17.1084 L 45.5497 17.8177 C 47.1852 18.0744 47.7764 18.3304 47.7764 19.0794 C 47.7764 20.281 46.4956 20.5574 45.3131 20.5574 C 42.8695 20.5574 42.278 19.8871 42.1602 18.823 H 36.6027 C 36.8784 22.7446 40.327 23.5924 45.0961 23.5924 C 46.6409 23.5924 50.9039 23.564 52.5514 21.1158 L 51.6642 23.1589 H 56.6899 L 57.5378 20.8724 H 63.686 L 64.5335 23.1589 H 71.4272 L 72.2746 20.8724 H 78.4232 L 79.271 23.1589 H 94.7735 C 99.0892 23.1589 99.8773 20.6361 99.8773 18.9609 C 99.8773 16.9706 98.912 15.7683 97.4337 15.4338 Z M 58.6409 17.9562 L 60.5918 12.6351 H 60.6316 L 62.5825 17.9562 H 58.6409 Z M 73.3785 17.9562 L 75.3294 12.6351 H 75.3688 L 77.3197 17.9562 H 73.3785 Z M 88.211 12.1224 H 92.8816 C 93.8866 12.1224 94.3202 12.6748 94.3202 13.305 C 94.3202 13.9552 93.8866 14.5076 92.8816 14.5076 H 88.211 V 12.1224 Z M 93.2557 20.1238 H 88.211 V 17.2666 H 93.2557 C 94.2418 17.2666 94.9113 17.7396 94.9113 18.6655 C 94.9113 19.5917 94.2418 20.1238 93.2557 20.1238 Z M 16.0418 31.3167 C 24.5011 31.3167 31.3586 24.4589 31.3586 16 C 31.3586 7.5411 24.5011 0.683252 16.0418 0.683252 C 7.58259 0.683253 0.725451 7.5411 0.725451 16 S 7.58259 31.3167 16.0418 31.3167&quot;);fill:rgb(205, 205, 205);fill-rule:evenodd;font-size:16px;font-weight:700;height:auto;inline-size:auto;line-height:24px;outline-color:rgb(0, 76, 151);overflow-x:visible;overflow-y:visible;perspective-origin:0px 0px;text-decoration:none solid rgb(0, 76, 151);text-decoration-color:rgb(0, 76, 151);transform-origin:0px 0px;width:auto;-webkit-text-emphasis-color:rgb(0, 76, 151);-webkit-text-fill-color:rgb(0, 76, 151);-webkit-text-stroke-color:rgb(0, 76, 151);"/>  <path d="M16.0421978 1.29617582c-8.12096703 0-14.70417582 6.5832088-14.70417582 14.70417578 0 8.1206154 6.58320879 14.7034726 14.70417582 14.7034726 8.1206154 0 14.7038242-6.5828572 14.7038242-14.7034726 0-8.12096698-6.5832088-14.70417578-14.7038242-14.70417578" fill="#34322E" style="block-size:auto;border-block-end-color:rgb(0, 76, 151);border-block-start-color:rgb(0, 76, 151);border-bottom-color:rgb(0, 76, 151);border-inline-end-color:rgb(0, 76, 151);border-inline-start-color:rgb(0, 76, 151);border-left-color:rgb(0, 76, 151);border-right-color:rgb(0, 76, 151);border-top-color:rgb(0, 76, 151);caret-color:rgb(0, 76, 151);color:rgb(0, 76, 151);column-rule-color:rgb(0, 76, 151);cursor:pointer;d:path(&quot;M 16.0422 1.29618 C 7.92123 1.29618 1.33802 7.87938 1.33802 16.0004 C 1.33802 24.121 7.92123 30.7038 16.0422 30.7038 C 24.1628 30.7038 30.746 24.121 30.746 16.0004 C 30.746 7.87938 24.1628 1.29618 16.0422 1.29618&quot;);fill:rgb(52, 50, 46);fill-rule:evenodd;font-size:16px;font-weight:700;height:auto;inline-size:auto;line-height:24px;outline-color:rgb(0, 76, 151);overflow-x:visible;overflow-y:visible;perspective-origin:0px 0px;text-decoration:none solid rgb(0, 76, 151);text-decoration-color:rgb(0, 76, 151);transform-origin:0px 0px;width:auto;-webkit-text-emphasis-color:rgb(0, 76, 151);-webkit-text-fill-color:rgb(0, 76, 151);-webkit-text-stroke-color:rgb(0, 76, 151);"/>  <path d="M24.1568352 5.21424176c-2.1675605-2.17283517-5.0493187-3.36914286-8.1146374-3.36914286-3.0656703 0-5.9470769 1.19630769-8.11463736 3.36914286-2.16791209 2.17248351-3.36140659 5.06127474-3.36140659 8.13397804 0-.0003517.00140659 5.4526593.00281318 5.5268571 0 .0021099-.00070329.0038682-.00070329.0056264h.00070329c.05767033 2.9869011 1.24483517 5.7867253 3.35859341 7.9054066 2.16756046 2.1724835 5.04896706 3.3691428 8.11463736 3.3691428 3.0653187 0 5.9470769-1.1966593 8.1146374-3.3691428 2.1190329-2.1243077 3.3069011-4.9322198 3.3585934-7.9279121l.0028132-5.509978c0-3.0727033-1.1941978-5.96149453-3.3614066-8.13397804zm-.2183737 21.33767034c-2.1095384 2.1148132-4.9135824 3.2787692-7.8966153 3.2787692-2.9826814 0-5.7877803-1.163956-7.89661543-3.2787692-2.05468132-2.0592528-3.20984615-4.7799561-3.26821978-7.6835165.04536264-.8080879.17758242-1.5985934.39173626-2.3616703 1.71885715 4.4205714 5.97872525 7.358945 10.74215385 7.358945 4.7968352 0 9.0676044-2.9464615 10.765011-7.3775824.2250549.7504176.3706374 1.5261539.4314725 2.3156044-.0425494 2.9278242-1.1987692 5.6738462-3.2689231 7.7482198zM5.44105495 16.0133626c.57248351-1.7258901 1.57116483-3.2900219 2.93345054-4.5584175 2.08210991-1.93828576 4.81828571-3.00589015 7.70496701-3.00589015 2.8181099 0 5.5236923 1.08342857 7.6188132 3.05160435 1.349978 1.2683956 2.3528791 2.8145934 2.945055 4.5049671-1.5518242 4.5151648-5.8099341 7.5456703-10.6095825 7.5456703-4.7697582 0-9.01978018-3.0276923-10.59270325-7.5379341zm21.76879125.9135825c-.532044-2.1243077-1.6759561-4.0734946-3.3234286-5.6214506-2.1520879-2.02127472-4.9329231-3.1345934-7.8294506-3.1345934-2.9647472 0-5.7754725 1.09679121-7.91490107 3.0881758-1.62778022 1.5156044-2.75024175 3.442989-3.26751648 5.5630769v-3.4640879c0-2.9897143 1.16184615-5.80079117 3.27103297-7.91525271C10.2547692 3.3287033 13.0595165 2.1643956 16.0421978 2.1643956c2.9826813 0 5.7870769 1.1643077 7.8966154 3.27841759 2.1095384 2.11446154 3.271033 4.92553841 3.271033 7.91525271v3.5688792z" fill="#CDCDCD" style="block-size:auto;border-block-end-color:rgb(0, 76, 151);border-block-start-color:rgb(0, 76, 151);border-bottom-color:rgb(0, 76, 151);border-inline-end-color:rgb(0, 76, 151);border-inline-start-color:rgb(0, 76, 151);border-left-color:rgb(0, 76, 151);border-right-color:rgb(0, 76, 151);border-top-color:rgb(0, 76, 151);caret-color:rgb(0, 76, 151);color:rgb(0, 76, 151);column-rule-color:rgb(0, 76, 151);cursor:pointer;d:path(&quot;M 24.1568 5.21424 C 21.9893 3.04141 19.1075 1.8451 16.0422 1.8451 C 12.9765 1.8451 10.0951 3.04141 7.92756 5.21424 C 5.75965 7.38673 4.56615 10.2755 4.56615 13.3482 C 4.56615 13.3479 4.56756 18.8009 4.56897 18.8751 C 4.56897 18.8772 4.56826 18.8789 4.56826 18.8807 H 4.56897 C 4.62664 21.8676 5.8138 24.6674 7.92756 26.7861 C 10.0951 28.9586 12.9765 30.1553 16.0422 30.1553 C 19.1075 30.1553 21.9893 28.9586 24.1568 26.7861 C 26.2759 24.6618 27.4637 21.8539 27.5154 18.8582 L 27.5182 13.3482 C 27.5182 10.2755 26.324 7.38673 24.1568 5.21424 Z M 23.9385 26.5519 C 21.8289 28.6667 19.0249 29.8307 16.0418 29.8307 C 13.0592 29.8307 10.2541 28.6667 8.14523 26.5519 C 6.09055 24.4927 4.93538 21.772 4.87701 18.8684 C 4.92237 18.0603 5.05459 17.2698 5.26875 16.5067 C 6.9876 20.9273 11.2475 23.8657 16.0109 23.8657 C 20.8077 23.8657 25.0785 20.9192 26.7759 16.4881 C 27.001 17.2385 27.1466 18.0142 27.2074 18.8037 C 27.1648 21.7315 26.0086 24.4775 23.9385 26.5519 Z M 5.44105 16.0134 C 6.01354 14.2875 7.01222 12.7233 8.37451 11.4549 C 10.4566 9.51666 13.1928 8.44906 16.0795 8.44906 C 18.8976 8.44906 21.6032 9.53248 23.6983 11.5007 C 25.0483 12.7691 26.0512 14.3153 26.6433 16.0056 C 25.0915 20.5208 20.8334 23.5513 16.0338 23.5513 C 11.264 23.5513 7.01398 20.5236 5.44106 16.0134 Z M 27.2098 16.9269 C 26.6778 14.8026 25.5339 12.8535 23.8864 11.3055 C 21.7343 9.28422 18.9535 8.1709 16.057 8.1709 C 13.0922 8.1709 10.2815 9.26769 8.14207 11.2591 C 6.51429 12.7747 5.39182 14.7021 4.87455 16.8222 V 13.3581 C 4.87455 10.3684 6.0364 7.55727 8.14558 5.44281 C 10.2548 3.3287 13.0595 2.1644 16.0422 2.1644 C 19.0249 2.1644 21.8293 3.3287 23.9388 5.44281 C 26.0484 7.55727 27.2098 10.3684 27.2098 13.3581 V 16.9269 Z&quot;);fill:rgb(205, 205, 205);fill-rule:evenodd;font-size:16px;font-weight:700;height:auto;inline-size:auto;line-height:24px;outline-color:rgb(0, 76, 151);overflow-x:visible;overflow-y:visible;perspective-origin:0px 0px;text-decoration:none solid rgb(0, 76, 151);text-decoration-color:rgb(0, 76, 151);transform-origin:0px 0px;width:auto;-webkit-text-emphasis-color:rgb(0, 76, 151);-webkit-text-fill-color:rgb(0, 76, 151);-webkit-text-stroke-color:rgb(0, 76, 151);"/>  <path d="M13.4547692 4.24474725c.602022-.15261538 1.4547693-.22435165 1.4547693-.22435165l1.1312527 2.31982418 1.1316044-2.31982418s.7725714.06962638 1.4547692.22435165l1.0341978 3.0298022.2317363-2.68448352c.7630769.21415385 1.4547692.51094506 2.2930989.95929671.7528791.40298901.8798242.85942857.8218022 1.32993406-.0028132.00773627-.0654066.47718682-.626989.27569231-.0123077 0 .9754725.51727473.7574505 1.48536264-.0812307.34707692-.4272527.52395604-.9515604.22927472-.4652308-.26830769-.9867253-.54751648-1.6045714-.7890989-1.0823737-.42268132-1.8742857-.55806593-1.8742857-.55806593l-.2183737-.64351649c-.7106813-.14593406-1.5113846-.19446153-1.5113846-.19446153l-.2584615.56861538c-.3787253-.01617582-.9652747-.01441758-1.358066 0l-.2584615-.56861538c-.6941538.03586813-1.5113846.19446153-1.5113846.19446153l-.218022.64351649c-.359033.0734945-.7163077.16035165-1.1425055.28764835l.0636484-.19832967c-.6973187.55595604-1.2975825.80597802-1.2975825.81125275-.4550329.22189011-1.69846149.85134066-1.99841753.24228571-.09494506-.14136264-.08474726-.43147253-.08474726-.43147253.36712088-.24228571.8974066-.51410989 1.27578019-.72474725 0 0-.1895384.76589011.5854945.35375824.2753407-.13432967.5608792-.3294945.6913407-.62065934.178989-.5018022-.3699341-.40334066-.5752967-.34250549-.3509451.10303296-1.64676924.5432967-1.65098902-.33125275-.00316483-.62276923.83727472-1.26065934 1.73854942-1.63164835 1.3496264-.5556044 1.8148572-.04887912 1.7782857.37098901-.5464615.15226374-.6628571.19551648-1.125978.34953846.0098462-.15613187-.1061978-.38892308-.6772747-.15578022-.557011.27323077-.6994286.49054945-.6196044.7258022.1016264.31578022.9726593-.02074725 1.1906813-.06716484 1.2209231-.26197802 1.0612748.56263737 1.0595165.58479121 0 0 .8636484-2.50021978.869978-2.50021978zm.3393407 2.02057143c.2380659-.05063736.6653187-.11428571 1.0503736-.14945055-.0021099.00386813-.5816264-1.27226373-.5816264-1.27226373l-.4687472 1.42171428zm6.9025055 1.10276923c.3207033.12167033.8647033.38962638 1.127033.53872528 0 0 .2728791.20325274.4068571.02707692.1051429-.20641758.0284835-.40931868-.4261978-.65125275-.2936264-.1709011-.8478242-.41002198-1.0567033-.49336263l-.050989.57881318zm.1125275-1.27085714s.4676923.19446154.7827692.34250549c.1185055.05556044.1877802.11393407.3287912.12307693.1111209-.01336264.1519121-.07947253.1645714-.13468132.0358682-.31015385-.3157802-.4494066-.4360439-.51059341-.3446154-.17301099-.4501099-.21907692-.7929671-.36114286 0 .00808792-.0471208.54083517-.0471208.54083517zm-3.572044.01863736c.3716923.03446154.6037802.06083517 1.0503736.14945081.0045715.00070304-.4683956-1.42171454-.4683956-1.42171454l-.581978 1.27226373zM10.4305934 15.7605275c.3692308.1694945.6695385.2904615.9958681.2440439.7419781-.1058461.9614066-.3984176 1.6404396-.2000879.3090989.0907253.5520879.344967.5520879.344967s-.1761758-.0622417-.3671209-.0738461c-.7233406-.0429011-1.3028571.5130549-2.0117802.3316044-.638945-.1638681-.8094945-.6466813-.8094945-.6466813" fill="#CDCDCD" style="block-size:auto;border-block-end-color:rgb(0, 76, 151);border-block-start-color:rgb(0, 76, 151);border-bottom-color:rgb(0, 76, 151);border-inline-end-color:rgb(0, 76, 151);border-inline-start-color:rgb(0, 76, 151);border-left-color:rgb(0, 76, 151);border-right-color:rgb(0, 76, 151);border-top-color:rgb(0, 76, 151);caret-color:rgb(0, 76, 151);color:rgb(0, 76, 151);column-rule-color:rgb(0, 76, 151);cursor:pointer;d:path(&quot;M 13.4548 4.24475 C 14.0568 4.09213 14.9095 4.0204 14.9095 4.0204 L 16.0408 6.34022 L 17.1724 4.0204 S 17.945 4.09002 18.6272 4.24475 L 19.6614 7.27455 L 19.8931 4.59007 C 20.6562 4.80422 21.3479 5.10101 22.1862 5.54936 C 22.9391 5.95235 23.066 6.40879 23.008 6.8793 C 23.0052 6.88703 22.9426 7.35648 22.381 7.15499 C 22.3687 7.15499 23.3565 7.67226 23.1385 8.64035 C 23.0572 8.98743 22.7112 9.16431 22.1869 8.86963 C 21.7217 8.60132 21.2002 8.32211 20.5823 8.08053 C 19.5 7.65785 18.708 7.52246 18.708 7.52246 L 18.4897 6.87895 C 17.779 6.73301 16.9783 6.68448 16.9783 6.68448 L 16.7198 7.2531 C 16.3411 7.23692 15.7545 7.23868 15.3618 7.2531 L 15.1033 6.68448 C 14.4091 6.72035 13.5919 6.87895 13.5919 6.87895 L 13.3739 7.52246 C 13.0149 7.59596 12.6576 7.68281 12.2314 7.81011 L 12.295 7.61178 C 11.5977 8.16774 10.9974 8.41776 10.9974 8.42303 C 10.5424 8.64492 9.29899 9.27437 8.99903 8.66532 C 8.90408 8.52396 8.91428 8.23385 8.91428 8.23385 C 9.2814 7.99156 9.81169 7.71974 10.1901 7.5091 C 10.1901 7.5091 10.0005 8.27499 10.7756 7.86286 C 11.0509 7.72853 11.3364 7.53336 11.4669 7.2422 C 11.6459 6.7404 11.097 6.83886 10.8916 6.89969 C 10.5407 7.00273 9.24483 7.44299 9.24061 6.56844 C 9.23744 5.94567 10.0779 5.30778 10.9792 4.93679 C 12.3288 4.38119 12.794 4.88791 12.7574 5.30778 C 12.211 5.46004 12.0946 5.5033 11.6315 5.65732 C 11.6413 5.50119 11.5253 5.2684 10.9542 5.50154 C 10.3972 5.77477 10.2548 5.99209 10.3346 6.22734 C 10.4362 6.54312 11.3072 6.20659 11.5253 6.16018 C 12.7462 5.8982 12.5865 6.72281 12.5848 6.74497 C 12.5848 6.74497 13.4484 4.24475 13.4548 4.24475 Z M 13.7941 6.26532 C 14.0322 6.21468 14.4594 6.15103 14.8445 6.11587 C 14.8424 6.11974 14.2629 4.8436 14.2629 4.8436 L 13.7941 6.26532 Z M 20.6966 7.36809 C 21.0173 7.48976 21.5613 7.75771 21.8236 7.90681 C 21.8236 7.90681 22.0965 8.11007 22.2305 7.93389 C 22.3356 7.72747 22.259 7.52457 21.8043 7.28264 C 21.5107 7.11174 20.9565 6.87262 20.7476 6.78928 L 20.6966 7.36809 Z M 20.8091 6.09723 S 21.2768 6.29169 21.5919 6.43974 C 21.7104 6.4953 21.7797 6.55367 21.9207 6.56281 C 22.0318 6.54945 22.0726 6.48334 22.0853 6.42813 C 22.1211 6.11798 21.7695 5.97873 21.6492 5.91754 C 21.3046 5.74453 21.1991 5.69846 20.8563 5.5564 C 20.8563 5.56448 20.8091 6.09723 20.8091 6.09723 Z M 17.2371 6.11587 C 17.6088 6.15033 17.8409 6.1767 18.2875 6.26532 C 18.292 6.26602 17.8191 4.8436 17.8191 4.8436 L 17.2371 6.11587 Z M 10.4306 15.7605 C 10.7998 15.93 11.1001 16.051 11.4265 16.0046 C 12.1684 15.8987 12.3879 15.6062 13.0669 15.8045 C 13.376 15.8952 13.619 16.1495 13.619 16.1495 S 13.4428 16.0872 13.2519 16.0756 C 12.5285 16.0327 11.949 16.5887 11.2401 16.4072 C 10.6011 16.2433 10.4306 15.7605 10.4306 15.7605&quot;);fill:rgb(205, 205, 205);fill-rule:evenodd;font-size:16px;font-weight:700;height:auto;inline-size:auto;line-height:24px;outline-color:rgb(0, 76, 151);overflow-x:visible;overflow-y:visible;perspective-origin:0px 0px;text-decoration:none solid rgb(0, 76, 151);text-decoration-color:rgb(0, 76, 151);transform-origin:0px 0px;width:auto;-webkit-text-emphasis-color:rgb(0, 76, 151);-webkit-text-fill-color:rgb(0, 76, 151);-webkit-text-stroke-color:rgb(0, 76, 151);"/>  <path d="M14.4622418 15.8603956c-.2352528.2021978-.7542858 1.3130549-2.0676923.6885275-.0379781.1329231.0457142.5608791.2531868.8611868.178989.2851868.6491428.4061538.9863736.3692308-.4058022.376967-.1381978.9480439-.0998681 1.7972747.229978-.4666374.6407033-.6684835.6407033-.6684835.0003516 0-.4177583.7588571-.4198682 1.1607912-.0295384.6396483.6290989 1.1934945 1.2036923 2.0381538.1701978-.9874285.1301099-1.3450549.3112088-1.9231648.1533187.3410989.3164835 2.0265494.2605715 2.6932747.9895384-.792967 2.1271208-.8137143 1.6256703-2.9035604.299956.3759121.5854945 1.1312527.6688351 1.5725714v-.0007033c.4669891-.7588571 1.5669451-1.2444835.7243956-3.2506374.4596044.3762638.6241759 1.0243517.808088 1.268044.1346813-.9614066.6821978-2.4309451-.5158682-3.5386374l.007033-.0070329c.299956.0977582.679033.3692307.8914286.6814945-.0066814-.8625934.544-1.3573627-.6709451-2.8451868.2254066-.3713407.3854066-.8105495.4532747-1.2585495-.4589011.0538022-1.0014945.1466374-1.3978022.353055-.0144175-.0376264-.1030329-.1997363-.3207033-.2225935l-3.5073406.0007033c-.2422857-.0003516-.4652308.3263297-.6023736.9526154-.0105495-.0063296-.1227253-.0970549-.2756923-.1554285-.4261979-.1624616-1.4266374-.174066-1.7199121.7398681-.1673847.4283077-.0341099 1.1787253-.0341099 1.1787253s1.093978-.820044 1.6281318.1318681m.8126594-.9564835c-.1754725-.1051429-.3003077-.4332308-.0907253-.5992088.1498022-.1185055.5840879.103033.2595165.4494066.301011.1740659.478945-.1125275.4891428-.2159121l.103033-.0080879c-.0411428.2116923-.3407472.6501978-.760967.3738022M17.780044 12.5095385c.1185055 0 .2120439.0766593.2120439.0766593l1.377055-2.98232967c-1.4843077.00105495-.9529671.98672527-.929055 1.04404397.0242637.0576703-.0749011.0298901-.0749011.0298901-.0914286-.0872088-.2162637-.141011-.3527033-.141011-.2827253 0-.519033.2275165-.519033.5105934 0 .2827253.2363077.5137583.519033.5137583.045011 0 .088967-.0056264.1308132-.0165275 0 0-1.0011429.9526154-1.8057143-.2813187-.0601319-.0928352.0843956.1107692.3168352.1100659.2830769-.0014066.5123516-.2296263.5123516-.5123516s-.2292747-.5123517-.5123516-.5123517c-.1086594 0-.2095824.0337583-.2929231.0917803l.0007033-.0073847c.1188571-.0938901.1958681-.2398241.1958681-.4033406 0-.28272529-.2292747-.51235166-.5123516-.51235166l-.0073846-.00175824c-.2827253 0-.5127033.22927472-.5127033.5123516 0 .1635165.077011.3090989.1965714.4033407l.0003517.0073846c-.0829891-.058022-.1842638-.0921318-.2932748-.0921318-.2830769 0-.512.2292747-.512.5123516s.2289231.5112967.512.512c.2331429.0014066.3776704-.2025495.3168352-.1093626-.8042198 1.2335824-1.805011.2806153-1.805011.2806153.0414945.0112528.0854506.0172308.1308132.0172308.2823736 0 .5123516-.2292747.5123516-.5123516 0-.283077-.229978-.512-.5123516-.512-.1367912 0-.2612747.0534505-.353055.141011 0 0-.0995164.0274285-.0752527-.0302418.0246154-.0573187.555956-1.04298901-.9283517-1.04369231l1.3767033 2.98197801s.0931869-.0745494.212044-.0745494h3.476044" fill="#CDCDCD" style="block-size:auto;border-block-end-color:rgb(0, 76, 151);border-block-start-color:rgb(0, 76, 151);border-bottom-color:rgb(0, 76, 151);border-inline-end-color:rgb(0, 76, 151);border-inline-start-color:rgb(0, 76, 151);border-left-color:rgb(0, 76, 151);border-right-color:rgb(0, 76, 151);border-top-color:rgb(0, 76, 151);caret-color:rgb(0, 76, 151);color:rgb(0, 76, 151);column-rule-color:rgb(0, 76, 151);cursor:pointer;d:path(&quot;M 14.4622 15.8604 C 14.227 16.0626 13.708 17.1735 12.3946 16.5489 C 12.3566 16.6818 12.4403 17.1098 12.6477 17.4101 C 12.8267 17.6953 13.2969 17.8163 13.6341 17.7793 C 13.2283 18.1563 13.4959 18.7274 13.5342 19.5766 C 13.7642 19.11 14.1749 18.9081 14.1749 18.9081 C 14.1753 18.9081 13.7572 19.667 13.7551 20.0689 C 13.7255 20.7086 14.3842 21.2624 14.9588 22.1071 C 15.129 21.1196 15.0889 20.762 15.27 20.1839 C 15.4233 20.525 15.5865 22.2105 15.5306 22.8772 C 16.5201 22.0842 17.6577 22.0635 17.1562 19.9736 C 17.4562 20.3495 17.7417 21.1049 17.8251 21.5462 V 21.5455 C 18.292 20.7866 19.392 20.301 18.5495 18.2949 C 19.0091 18.6711 19.1736 19.3192 19.3575 19.5629 C 19.4922 18.6015 20.0397 17.132 18.8417 16.0243 L 18.8487 16.0172 C 19.1487 16.115 19.5277 16.3865 19.7401 16.6987 C 19.7334 15.8361 20.2841 15.3414 19.0692 13.8535 C 19.2946 13.4822 19.4546 13.043 19.5225 12.595 C 19.0636 12.6488 18.521 12.7416 18.1247 12.948 C 18.1102 12.9104 18.0216 12.7483 17.804 12.7255 L 14.2966 12.7262 C 14.0543 12.7258 13.8314 13.0525 13.6942 13.6788 C 13.6837 13.6724 13.5715 13.5817 13.4185 13.5233 C 12.9924 13.3609 11.9919 13.3493 11.6986 14.2632 C 11.5313 14.6915 11.6645 15.4419 11.6645 15.4419 S 12.7585 14.6219 13.2927 15.5738 M 14.1053 14.6173 C 13.9298 14.5122 13.805 14.1841 14.0146 14.0181 C 14.1644 13.8996 14.5987 14.1211 14.2741 14.4675 C 14.5751 14.6416 14.7531 14.355 14.7633 14.2516 L 14.8663 14.2435 C 14.8251 14.4552 14.5255 14.8937 14.1053 14.6173 M 17.78 12.5095 C 17.8986 12.5095 17.9921 12.5862 17.9921 12.5862 L 19.3691 9.60387 C 17.8848 9.60492 18.4162 10.5906 18.4401 10.6479 C 18.4644 10.7056 18.3652 10.6778 18.3652 10.6778 C 18.2738 10.5906 18.1489 10.5368 18.0125 10.5368 C 17.7298 10.5368 17.4935 10.7643 17.4935 11.0474 C 17.4935 11.3301 17.7298 11.5611 18.0125 11.5611 C 18.0575 11.5611 18.1014 11.5555 18.1433 11.5446 C 18.1433 11.5446 17.1422 12.4972 16.3376 11.2633 C 16.2775 11.1705 16.422 11.3741 16.6544 11.3734 C 16.9375 11.372 17.1668 11.1437 17.1668 10.861 S 16.9375 10.3487 16.6544 10.3487 C 16.5458 10.3487 16.4448 10.3824 16.3615 10.4404 L 16.3622 10.4331 C 16.4811 10.3392 16.5581 10.1932 16.5581 10.0297 C 16.5581 9.74699 16.3288 9.51736 16.0457 9.51736 L 16.0383 9.5156 C 15.7556 9.5156 15.5256 9.74488 15.5256 10.028 C 15.5256 10.1915 15.6026 10.3371 15.7222 10.4313 L 15.7226 10.4387 C 15.6396 10.3807 15.5383 10.3465 15.4293 10.3465 C 15.1462 10.3465 14.9173 10.5758 14.9173 10.8589 S 15.1462 11.3702 15.4293 11.3709 C 15.6624 11.3723 15.8069 11.1684 15.7461 11.2615 C 14.9419 12.4951 13.9411 11.5422 13.9411 11.5422 C 13.9826 11.5534 14.0266 11.5594 14.0719 11.5594 C 14.3543 11.5594 14.5843 11.3301 14.5843 11.047 C 14.5843 10.764 14.3543 10.535 14.0719 10.535 C 13.9351 10.535 13.8106 10.5885 13.7189 10.676 C 13.7189 10.676 13.6193 10.7035 13.6436 10.6458 C 13.6682 10.5885 14.1996 9.60281 12.7153 9.60211 L 14.092 12.5841 S 14.1851 12.5095 14.304 12.5095 H 17.78&quot;);fill:rgb(205, 205, 205);fill-rule:evenodd;font-size:16px;font-weight:700;height:auto;inline-size:auto;line-height:24px;outline-color:rgb(0, 76, 151);overflow-x:visible;overflow-y:visible;perspective-origin:0px 0px;text-decoration:none solid rgb(0, 76, 151);text-decoration-color:rgb(0, 76, 151);transform-origin:0px 0px;width:auto;-webkit-text-emphasis-color:rgb(0, 76, 151);-webkit-text-fill-color:rgb(0, 76, 151);-webkit-text-stroke-color:rgb(0, 76, 151);"/>  <path d="M19.4254066 15.8688352c.0780659-.3231649.0414945-.7778462-.6565275-1.5272088-.2225934.242989-.4683956.4620659-.7177143.6656703.0872088.9128791.1244836 2.3145495-.6424615 3.0456264 0 0 .0101978-.5953407-.3252747-1.2413187-.0337583.8123077-.4001759 1.6460659-1.1375824 2.1506813 0 0 .1248351-.5643956.0418461-1.5613187-.1202637.3699341-.4128352.7461978-.8576703.8924835l-.1895385-1.0285714s.3674725-.2616264.3681758-.2721758c-.0007033.0105494.1199121.5847912.1199121.5847912.3903297-.3692308.0805275-.9610549.4515165-1.0932747.1962198-.0629451.301011.0854505.3632528.2085275.1726593.356923.1765274.6618022.1825055 1.047912.2313846-.542945.2401758-1.0774505.1571868-1.6886153-.0263737-.2088792.0727912-.3185935.196923-.3541099.1329231-.0284836.2377143.0453626.3256264.1508571.231033.289055.3843517.6691868.4754286 1.0081758.1515604-.5155165.1691428-1.2476483-.0119561-1.7575384-.0218022-.0995165-.0538022-.2074726-.0538022-.2074726.5327473-.4525714 1.0218902-.9818022 1.3028572-1.649934-.7458462.2190769-1.7248352.8109011-1.7248352.8109011l-.2021978-.2155605.7736264-.6030769c.0488791-.037978.0696264-.0938901-.0696264-.0974066l-2.8560879.0035165c-.2697143-.0007033-.538022.0854506-.5404835.5411868l.3562198.3013627s.4388571-.1635165.858022.1258901l-.0555605.2436923s-.1842637-.1258901-.2785055-.0559121c-.2349011.6062417-.6287472.6934505-.9508571.574945-.3555165-.1473406-.4089671-.5640439-.4648791-.7873406-.6129231-.3548132-1.5704616-.4142418-1.6425495.6674286.6544176-.2967913 1.3229011.0650549 1.5025934.4318241l1.701978.4919561c-.5802197.433934-1.3608791 1.8067692-2.3180659 1.3608791.6646154.7198242 1.4076484-.1807473 1.643956.1962198.2415825.4026373-.8731428.504967-.6920439 1.5268571.1642198-.1684395.4986373-.5232527.7272088-.3112088.1318681.1223737.0689231.2946813.026022.346022-.4831649 1.024-.6927473 1.4952088.0970549 2.3057582.167033-1.2494065.2366593-1.5880439.5679121-1.6.4814066-.0021098.6378901 2.0993407.6628571 2.6215385.9585934-.6224176 1.1048792-.7338901.7985934-2.266022-.0632967-.273934-.0214505-.4318241.1656264-.5053187.2014945-.0745494.3738022.0611869.4557363.1927033.2254066.3495385.4574945.7578022.5886593 1.1738022.244044-.4047472.8865055-.6874725.186022-2.3813626-.114989-.2092308-.0938901-.3882198.062945-.485978.3498902-.2352528.820044.3481318.986022.626989-.0334066-.5978022.2574066-1.3443517-.677978-2.2934506-.1512088-.1832087-.1512088-.3185934-.0256703-.4441318.2018461-.2088791.6836044-.0249671.9455824.1301099" fill="#34322E" style="block-size:auto;border-block-end-color:rgb(0, 76, 151);border-block-start-color:rgb(0, 76, 151);border-bottom-color:rgb(0, 76, 151);border-inline-end-color:rgb(0, 76, 151);border-inline-start-color:rgb(0, 76, 151);border-left-color:rgb(0, 76, 151);border-right-color:rgb(0, 76, 151);border-top-color:rgb(0, 76, 151);caret-color:rgb(0, 76, 151);color:rgb(0, 76, 151);column-rule-color:rgb(0, 76, 151);cursor:pointer;d:path(&quot;M 19.4254 15.8688 C 19.5035 15.5457 19.4669 15.091 18.7689 14.3416 C 18.5463 14.5846 18.3005 14.8037 18.0512 15.0073 C 18.1384 15.9202 18.1756 17.3218 17.4087 18.0529 C 17.4087 18.0529 17.4189 17.4576 17.0834 16.8116 C 17.0497 17.6239 16.6833 18.4577 15.9458 18.9623 C 15.9458 18.9623 16.0707 18.3979 15.9877 17.401 C 15.8674 17.7709 15.5749 18.1472 15.13 18.2934 L 14.9405 17.2649 S 15.308 17.0032 15.3087 16.9927 C 15.308 17.0032 15.4286 17.5775 15.4286 17.5775 C 15.8189 17.2083 15.5091 16.6164 15.8801 16.4842 C 16.0763 16.4213 16.1811 16.5697 16.2433 16.6927 C 16.416 17.0497 16.4199 17.3545 16.4258 17.7407 C 16.6572 17.1977 16.666 16.6632 16.583 16.052 C 16.5567 15.8432 16.6558 15.7334 16.78 15.6979 C 16.9129 15.6694 17.0177 15.7433 17.1056 15.8488 C 17.3366 16.1378 17.4899 16.518 17.581 16.857 C 17.7326 16.3414 17.7502 15.6093 17.5691 15.0994 C 17.5472 14.9999 17.5152 14.8919 17.5152 14.8919 C 18.048 14.4394 18.5371 13.9101 18.8181 13.242 C 18.0723 13.4611 17.0933 14.0529 17.0933 14.0529 L 16.8911 13.8374 L 17.6647 13.2343 C 17.7136 13.1963 17.7343 13.1404 17.5951 13.1369 L 14.739 13.1404 C 14.4693 13.1397 14.201 13.2258 14.1985 13.6816 L 14.5547 13.9829 S 14.9936 13.8194 15.4127 14.1088 L 15.3572 14.3525 S 15.1729 14.2266 15.0787 14.2966 C 14.8438 14.9028 14.4499 14.9901 14.1278 14.8716 C 13.7723 14.7242 13.7189 14.3075 13.6629 14.0842 C 13.05 13.7294 12.0925 13.67 12.0204 14.7516 C 12.6748 14.4548 13.3433 14.8167 13.523 15.1835 L 15.225 15.6754 C 14.6447 16.1094 13.8641 17.4822 12.9069 17.0363 C 13.5715 17.7561 14.3145 16.8556 14.5509 17.2325 C 14.7924 17.6352 13.6777 17.7375 13.8588 18.7594 C 14.023 18.5909 14.3574 18.2361 14.586 18.4482 C 14.7179 18.5705 14.6549 18.7428 14.612 18.7942 C 14.1289 19.8182 13.9193 20.2894 14.7091 21.0999 C 14.8761 19.8505 14.9458 19.5119 15.277 19.4999 C 15.7584 19.4978 15.9149 21.5993 15.9399 22.1215 C 16.8985 21.4991 17.0447 21.3876 16.7385 19.8555 C 16.6752 19.5815 16.717 19.4236 16.9041 19.3501 C 17.1056 19.2756 17.2779 19.4113 17.3598 19.5428 C 17.5852 19.8924 17.8173 20.3006 17.9485 20.7166 C 18.1925 20.3119 18.835 20.0292 18.1345 18.3353 C 18.0195 18.1261 18.0406 17.9471 18.1974 17.8493 C 18.5473 17.6141 19.0175 18.1974 19.1835 18.4763 C 19.1501 17.8785 19.4409 17.1319 18.5055 16.1828 C 18.3543 15.9996 18.3543 15.8643 18.4798 15.7387 C 18.6817 15.5298 19.1634 15.7137 19.4254 15.8688&quot;);fill:rgb(52, 50, 46);fill-rule:evenodd;font-size:16px;font-weight:700;height:auto;inline-size:auto;line-height:24px;outline-color:rgb(0, 76, 151);overflow-x:visible;overflow-y:visible;perspective-origin:0px 0px;text-decoration:none solid rgb(0, 76, 151);text-decoration-color:rgb(0, 76, 151);transform-origin:0px 0px;width:auto;-webkit-text-emphasis-color:rgb(0, 76, 151);-webkit-text-fill-color:rgb(0, 76, 151);-webkit-text-stroke-color:rgb(0, 76, 151);"/>  <path d="M15.1127912 15.2893187c.5039121-.0991649.4163517.3541099.9927033.4652308-.4821099.1814505-.7015385-.3864616-.9927033-.4652308M18.1918242 13.7673846c-.1905934.3041758-.4792967.5661539-.8348132.6484396.1596483-.2623297.4673406-.6115165.8348132-.6484396M7.91876923 22.1816264c-.11006593-.0945934-.18637363-.1554286-.30101099-.2901099l-.00281319-.4778901c.29784616.3087472.61538462.5844395.94628572.8302417l.00386813.4645275c-.1163956-.0865055-.23068132-.1839121-.34391209-.2753407v2.8518682c-.09424176-.0756044-.21098901-.1701978-.30241758-.2486154v-2.8546813M8.7992967 22.4253187c.37696704.2827253.57002198.3987692.85098901.561934l.00246154.4546814c-.18672527-.1086594-.33793406-.1821539-.54892307-.338989l.00597802.8770109c.20043956.1318682.36184615.2306814.50145055.3129671l.00281318.3857582c-.17054945-.1002198-.31085714-.1796923-.50180219-.3133187l-.0007033 1.1266814c.18848352.1251868.32668132.210989.5869011.3632527l.00246154.4835165c-.448-.280967-.50215385-.3154286-.90162638-.594989 0 0 .0007033-3.3185055 0-3.3185055M11.0094066 26.8571429c-.9047912.4912527-1.42382418-1.5483077-.9793407-3.1068132.0836923-.2939781.3509451-.6741099.9360879.0024615l.0031649.4184615c-.4652308-.6667252-.6934506-.4680439-.7131429.5904176-.0334066 1.8809671.4008791 1.8528352.7539341 1.6165275l-.0007033.4789451M11.2942418 23.8241758c.1244835.0573187.1775824.0815824.3632527.1466374v1.4554725c.1694945.0594286.3439121.1125275.5221978.1512088l-.0010549-1.4283956c.1540219.0601319.2264615.0741978.3477802.1065495l.0010549 3.3265934c-.1206154-.0323517-.2264615-.0661099-.3456703-.1026814l.0049231-1.496967c-.1765275-.0530989-.3555165-.1100659-.5292308-.1709011v1.477978c-.1174505-.0411428-.2366593-.094945-.3632527-.1540219v-3.3114726M13.035956 24.3987692c.1343297.0379781.2007913.0516923.3119121.0766594.1962198.6290989.442022 1.5637802.6403517 2.1911209.0031648.0007032.0056264-.0003517.0084395 0l.0031649-2.0715605c.1125274.0232088.2380659.052044.3541099.0654066V27.968c-.103033-.0126593-.1698462-.0270769-.2725275-.0418462-.197978-.632967-.4828132-1.4990769-.6786813-2.1341538-.0028132-.0007033-.0056264.0003516-.0084396 0l.0084396 2.0033407c-.1139341-.0221539-.2535385-.0495825-.3667693-.0749011 0 0 .001055-3.3216704 0-3.3216704M16.7978901 24.7335385c.1308132-.0094945.2359561-.0221539.3773187-.0414945v2.8877362c.2732308-.0116044.5454066-.0573187.7978901-.0988132l-.0035165.434989c-.384.0629451-.7887472.1114726-1.1706373.1396044l-.001055-3.3220219M21.4062418 26.6686593c-.7022418.8847473-1.5085715.4698022-1.448088-1.1562197.0397363-1.0704176.5436484-2.0413187 1.4290989-1.8268132l.0031649.4430769c-1.2043956-.5432967-1.1238681 1.7782857-.9761758 2.2653187.1367912.4525714.420923.3748571.6343736.2310329l-.005978-.9874285c-.0826374.0369231-.1712528.0847472-.2549451.1192088l.0035165-.3973627c.2053626-.0854505.429011-.1786373.6143297-.286945l.0007033 1.5961318M21.8141538 23.2886154c.1142858-.0597802.2176704-.1199121.3298462-.1832088l.0116044 3.3353846c-.1118242.0629451-.2250549.1244835-.3393407.184967 0 0-.0021099-3.3364395-.0021099-3.3371428M22.605011 22.840967c.3164835-.1853186.5724835-.3931428.8516923-.600967l-.013011.4620659c-.1782857.1329231-.3428571.2503737-.5295824.3741539l.0031648.9251868c.1965715-.1135824.3115605-.1934066.4947693-.340044l-.0052748.3889231c-.1796923.1417143-.3105055.2366594-.4894945.3442638l-.0049231 1.1048791c.2254066-.1452308.3889231-.2661978.5756484-.4061539l-.0017582.4321758c-.2806154.2313847-.5918242.468044-.9019781.660044l.0207473-3.3445275M23.7387253 24.8179341c.2021978.1403077.5478681-.2387693.442022-.7025934-.1167473-.5109451-.5056704-.9522638-.4546814-1.5718682.001055-.0080879.0882638-.8738461.6716484-1.0774505l.0024615.3906813c-.3875165.0717363-.4026373.512-.4033406.530989-.0038682.1621099.0341099.2742857.0453626.3048791.0903736.2377143.2236484.4982857.3217582.7296704.4205715.9941098-.1297582 1.829978-.6227692 1.8247281l-.0024615-.4290358M16.325978 26.4179341c0 .9498022-.1663296 1.7241318-.7813626 1.7206273-.5545495-.0031768-.7820659-.7708251-.7820659-1.7206273 0-.9508572.2275164-1.7216704.7820659-1.7216704.5840879.0003517.7813626.7708132.7813626 1.7216704zm-.7820659-1.29653c-.2844835.0014091-.4318242.6041344-.4318242 1.3116508 0 .7071649.1473407 1.2821099.4318242 1.2803557.2827253-.001059.4328791-.5731908.4328791-1.2803557 0-.7075164-.1501538-1.3130549-.4328791-1.3116508zM19.6254945 26.0177582c0 .941011-.165978 1.7076044-.7817143 1.7041-.5534945-.0031769-.7813626-.763089-.7813626-1.7041 0-.9410109.2278681-1.7040879.7813626-1.7040879.5847912.0007033.7817143.763077.7817143 1.7040879zm-.7817143-1.2831673c-.2848351.0014091-.4321758.598508-.4321758 1.2989915 0 .6997802.1473407 1.2687473.4321758 1.2676938.2827253-.0021114.4325275-.5679136.4325275-1.2676938 0-.7004835-.1498022-1.3003956-.4325275-1.2989915z" fill="#CDCDCD" style="block-size:auto;border-block-end-color:rgb(0, 76, 151);border-block-start-color:rgb(0, 76, 151);border-bottom-color:rgb(0, 76, 151);border-inline-end-color:rgb(0, 76, 151);border-inline-start-color:rgb(0, 76, 151);border-left-color:rgb(0, 76, 151);border-right-color:rgb(0, 76, 151);border-top-color:rgb(0, 76, 151);caret-color:rgb(0, 76, 151);color:rgb(0, 76, 151);column-rule-color:rgb(0, 76, 151);cursor:pointer;d:path(&quot;M 15.1128 15.2893 C 15.6167 15.1902 15.5291 15.6434 16.1055 15.7545 C 15.6234 15.936 15.404 15.3681 15.1128 15.2893 M 18.1918 13.7674 C 18.0012 14.0716 17.7125 14.3335 17.357 14.4158 C 17.5167 14.1535 17.8244 13.8043 18.1918 13.7674 M 7.91877 22.1816 C 7.8087 22.087 7.7324 22.0262 7.61776 21.8915 L 7.61494 21.4136 C 7.91279 21.7224 8.23033 21.9981 8.56123 22.2439 L 8.5651 22.7084 C 8.4487 22.6219 8.33442 22.5245 8.22119 22.4331 V 25.2849 C 8.12694 25.2093 8.0102 25.1147 7.91877 25.0363 V 22.1816 M 8.7993 22.4253 C 9.17626 22.708 9.36932 22.8241 9.65029 22.9873 L 9.65275 23.4419 C 9.46602 23.3333 9.31481 23.2598 9.10382 23.1029 L 9.1098 23.98 C 9.31024 24.1118 9.47165 24.2106 9.61125 24.2929 L 9.61407 24.6787 C 9.44352 24.5785 9.30321 24.499 9.11226 24.3654 L 9.11156 25.492 C 9.30004 25.6172 9.43824 25.703 9.69846 25.8553 L 9.70092 26.3388 C 9.25292 26.0578 9.19877 26.0234 8.7993 25.7438 C 8.7993 25.7438 8.8 22.4253 8.7993 22.4253 M 11.0094 26.8571 C 10.1046 27.3484 9.58558 25.3088 10.0301 23.7503 C 10.1138 23.4564 10.381 23.0762 10.9662 23.7528 L 10.9693 24.1713 C 10.5041 23.5045 10.2759 23.7032 10.2562 24.7617 C 10.2228 26.6426 10.6571 26.6145 11.0101 26.3782 L 11.0094 26.8571 M 11.2942 23.8242 C 11.4187 23.8815 11.4718 23.9058 11.6575 23.9708 V 25.4263 C 11.827 25.4857 12.0014 25.5388 12.1797 25.5775 L 12.1786 24.1491 C 12.3327 24.2092 12.4051 24.2233 12.5264 24.2556 L 12.5275 27.5822 C 12.4069 27.5499 12.301 27.5161 12.1818 27.4796 L 12.1867 25.9826 C 12.0102 25.9295 11.8312 25.8725 11.6575 25.8117 V 27.2897 C 11.54 27.2485 11.4208 27.1947 11.2942 27.1356 V 23.8242 M 13.036 24.3988 C 13.1703 24.4367 13.2367 24.4505 13.3479 24.4754 C 13.5441 25.1045 13.7899 26.0392 13.9882 26.6665 C 13.9914 26.6673 13.9938 26.6662 13.9967 26.6665 L 13.9998 24.595 C 14.1124 24.6182 14.2379 24.647 14.3539 24.6604 V 27.968 C 14.2509 27.9553 14.1841 27.9409 14.0814 27.9262 C 13.8834 27.2932 13.5986 26.4271 13.4027 25.792 C 13.3999 25.7913 13.3971 25.7924 13.3943 25.792 L 13.4027 27.7953 C 13.2888 27.7732 13.1492 27.7458 13.036 27.7204 C 13.036 27.7204 13.037 24.3988 13.036 24.3988 M 16.7979 24.7335 C 16.9287 24.724 17.0338 24.7114 17.1752 24.692 V 27.5798 C 17.4484 27.5682 17.7206 27.5225 17.9731 27.481 L 17.9696 27.916 C 17.5856 27.9789 17.1808 28.0274 16.7989 28.0556 L 16.7979 24.7335 M 21.4062 26.6687 C 20.704 27.5534 19.8977 27.1385 19.9582 25.5124 C 19.9979 24.442 20.5018 23.4711 21.3873 23.6856 L 21.3904 24.1287 C 20.186 23.5854 20.2665 25.907 20.4142 26.394 C 20.551 26.8466 20.8352 26.7689 21.0486 26.6251 L 21.0426 25.6376 C 20.96 25.6745 20.8714 25.7224 20.7877 25.7568 L 20.7912 25.3595 C 20.9966 25.274 21.2202 25.1808 21.4055 25.0725 L 21.4062 26.6687 M 21.8142 23.2886 C 21.9284 23.2288 22.0318 23.1687 22.144 23.1054 L 22.1556 26.4408 C 22.0438 26.5037 21.9305 26.5653 21.8163 26.6258 C 21.8163 26.6258 21.8142 23.2893 21.8142 23.2886 M 22.605 22.841 C 22.9215 22.6556 23.1775 22.4478 23.4567 22.24 L 23.4437 22.7021 C 23.2654 22.835 23.1008 22.9524 22.9141 23.0762 L 22.9173 24.0014 C 23.1138 23.8878 23.2288 23.808 23.412 23.6614 L 23.4068 24.0503 C 23.2271 24.192 23.0963 24.2869 22.9173 24.3945 L 22.9123 25.4994 C 23.1378 25.3542 23.3013 25.2332 23.488 25.0933 L 23.4862 25.5254 C 23.2056 25.7568 22.8944 25.9935 22.5843 26.1855 L 22.605 22.841 M 23.7387 24.8179 C 23.9409 24.9582 24.2866 24.5792 24.1807 24.1153 C 24.064 23.6044 23.6751 23.1631 23.7261 22.5435 C 23.7271 22.5354 23.8143 21.6696 24.3977 21.466 L 24.4002 21.8567 C 24.0127 21.9284 23.9975 22.3687 23.9968 22.3877 C 23.993 22.5498 24.0309 22.662 24.0422 22.6926 C 24.1326 22.9303 24.2658 23.1909 24.364 23.4222 C 24.7845 24.4164 24.2342 25.2522 23.7412 25.247 L 23.7387 24.8179 M 16.326 26.4179 C 16.326 27.3677 16.1596 28.1421 15.5446 28.1386 C 14.9901 28.1354 14.7625 27.3677 14.7625 26.4179 C 14.7625 25.4671 14.9901 24.6963 15.5446 24.6963 C 16.1287 24.6966 16.326 25.4671 16.326 26.4179 Z M 15.5439 25.1214 C 15.2594 25.1228 15.1121 25.7255 15.1121 26.4331 C 15.1121 27.1402 15.2594 27.7152 15.5439 27.7134 C 15.8266 27.7124 15.9768 27.1402 15.9768 26.4331 C 15.9768 25.7255 15.8266 25.12 15.5439 25.1214 Z M 19.6255 26.0178 C 19.6255 26.9588 19.4595 27.7254 18.8438 27.7219 C 18.2903 27.7187 18.0624 26.9588 18.0624 26.0178 C 18.0624 25.0767 18.2903 24.3137 18.8438 24.3137 C 19.4286 24.3144 19.6255 25.0767 19.6255 26.0178 Z M 18.8438 24.7346 C 18.5589 24.736 18.4116 25.3331 18.4116 26.0336 C 18.4116 26.7334 18.5589 27.3023 18.8438 27.3013 C 19.1265 27.2992 19.2763 26.7334 19.2763 26.0336 C 19.2763 25.3331 19.1265 24.7332 18.8438 24.7346 Z&quot;);fill:rgb(205, 205, 205);fill-rule:evenodd;font-size:16px;font-weight:700;height:auto;inline-size:auto;line-height:24px;outline-color:rgb(0, 76, 151);overflow-x:visible;overflow-y:visible;perspective-origin:0px 0px;text-decoration:none solid rgb(0, 76, 151);text-decoration-color:rgb(0, 76, 151);transform-origin:0px 0px;width:auto;-webkit-text-emphasis-color:rgb(0, 76, 151);-webkit-text-fill-color:rgb(0, 76, 151);-webkit-text-stroke-color:rgb(0, 76, 151);"/>  </g> </svg>