<?xml version="1.0" encoding="UTF-8" standalone="no"?>
<svg
   xmlns:dc="http://purl.org/dc/elements/1.1/"
   xmlns:cc="http://creativecommons.org/ns#"
   xmlns:rdf="http://www.w3.org/1999/02/22-rdf-syntax-ns#"
   xmlns:svg="http://www.w3.org/2000/svg"
   xmlns="http://www.w3.org/2000/svg"
   viewBox="0 0 50.506668 50.506668"
   height="50.506668"
   width="50.506668"
   xml:space="preserve"
   id="svg2"
   version="1.1"><metadata
     id="metadata8"><rdf:RDF><cc:Work
         rdf:about=""><dc:format>image/svg+xml</dc:format><dc:type
           rdf:resource="http://purl.org/dc/dcmitype/StillImage" /><dc:title></dc:title></cc:Work></rdf:RDF></metadata><defs
     id="defs6" /><g
     id="layer2"><ellipse
       ry="23.648249"
       rx="23.969267"
       cy="25.146328"
       cx="25.039324"
       id="path4021"
       style="fill:#ffffff;stroke-width:0.94477898" /></g><g
     style="display:inline"
     transform="matrix(0,1.3333333,1.3333333,0,0,0)"
     id="g10"><g
       transform="matrix(0,0.13062748,-0.13062748,0,43.617872,-5.7924822)"
       id="g12"><path
         id="path14"
         style="fill:none;stroke:#000000;stroke-width:10;stroke-linecap:butt;stroke-linejoin:miter;stroke-miterlimit:3.8599999;stroke-dasharray:none;stroke-opacity:1"
         d="m 52.6289,188.621 c 0.0547,75.625 61.1841,136.75 135.9921,137.004 75.695,-0.254 136.817,-61.379 137.004,-137.004 C 325.438,113.75 264.316,52.6289 188.621,52.6289 113.813,52.6289 52.6836,113.75 52.6289,188.621 Z" /><path
         id="path16"
         style="fill:#000000;fill-opacity:1;fill-rule:nonzero;stroke:none"
         d="m 74.5234,200.137 c 1.4141,-0.059 2.3399,0.117 3.336,0.703 1.7969,1.035 2.957,2.93 3.25,5.371 0.5547,4.578 -2.375,7.832 -7.6289,8.469 -5.2149,0.633 -8.8282,-1.809 -9.3789,-6.321 -0.4883,-4.035 1.5234,-7.011 5.2187,-7.668 l 0.3985,3.254 c -2.0469,0.45 -3.0743,1.914 -2.8204,3.985 0.3125,2.578 2.5899,3.847 6.1329,3.418 3.5859,-0.442 5.5351,-2.285 5.2148,-4.903 -0.1406,-1.164 -0.6563,-2.07 -1.5117,-2.597 -0.4883,-0.313 -0.9336,-0.43 -1.8281,-0.528 l -0.3829,-3.183" /><path
         id="path18"
         style="fill:none;stroke:#231f20;stroke-width:1.12189996;stroke-linecap:butt;stroke-linejoin:miter;stroke-miterlimit:10;stroke-dasharray:none;stroke-opacity:1"
         d="m 74.5234,200.137 c 1.4141,-0.059 2.3399,0.117 3.336,0.703 1.7969,1.035 2.957,2.93 3.25,5.371 0.5547,4.578 -2.375,7.832 -7.6289,8.469 -5.2149,0.633 -8.8282,-1.809 -9.3789,-6.321 -0.4883,-4.035 1.5234,-7.011 5.2187,-7.668 l 0.3985,3.254 c -2.0469,0.45 -3.0743,1.914 -2.8204,3.985 0.3125,2.578 2.5899,3.847 6.1329,3.418 3.5859,-0.442 5.5351,-2.285 5.2148,-4.903 -0.1406,-1.164 -0.6563,-2.07 -1.5117,-2.597 -0.4883,-0.313 -0.9336,-0.43 -1.8281,-0.528 z" /><path
         id="path20"
         style="fill:#000000;fill-opacity:1;fill-rule:nonzero;stroke:none"
         d="m 71.2969,187.367 -7.4453,-0.148 0.0703,-3.375 16.4023,0.328 -0.0703,3.394 -6.1445,-0.121 -0.125,6.481 6.1445,0.117 -0.0703,3.379 -16.4023,-0.332 0.0625,-3.367 7.4531,0.144 0.125,-6.5" /><path
         id="path22"
         style="fill:none;stroke:#231f20;stroke-width:1.12521994;stroke-linecap:butt;stroke-linejoin:miter;stroke-miterlimit:10;stroke-dasharray:none;stroke-opacity:1"
         d="m 71.2969,187.367 -7.4453,-0.148 0.0703,-3.375 16.4023,0.328 -0.0703,3.394 -6.1445,-0.121 -0.125,6.481 6.1445,0.117 -0.0703,3.379 -16.4023,-0.332 0.0625,-3.367 7.4531,0.144 z" /><path
         id="path24"
         style="fill:#000000;fill-opacity:1;fill-rule:nonzero;stroke:none"
         d="m 68.7031,169.988 -3.1015,-1.59 0.5547,-3.425 15.332,8.23 -0.5977,3.699 -17.1718,3.141 0.5507,-3.402 3.4493,-0.567 z m 2.6367,1.367 -0.6835,4.231 6.6914,-1.082 z" /><path
         id="path26"
         style="fill:none;stroke:#231f20;stroke-width:1.12820005;stroke-linecap:butt;stroke-linejoin:miter;stroke-miterlimit:10;stroke-dasharray:none;stroke-opacity:1"
         d="m 68.7031,169.988 -3.1015,-1.59 0.5547,-3.425 15.332,8.23 -0.5977,3.699 -17.1718,3.141 0.5507,-3.402 3.4493,-0.567 z m 2.6367,1.367 -0.6835,4.231 6.6914,-1.082 z" /><path
         id="path28"
         style="fill:#000000;fill-opacity:1;fill-rule:nonzero;stroke:none"
         d="m 83.8828,161.863 -0.8789,3.282 -15.9101,-4.266 2.9218,-10.891 2.7227,0.735 -2.0391,7.617 13.1836,3.523" /><path
         id="path30"
         style="fill:none;stroke:#231f20;stroke-width:1.12977004;stroke-linecap:butt;stroke-linejoin:miter;stroke-miterlimit:10;stroke-dasharray:none;stroke-opacity:1"
         d="m 83.8828,161.863 -0.8789,3.282 -15.9101,-4.266 2.9218,-10.891 2.7227,0.735 -2.0391,7.617 z" /><path
         id="path32"
         style="fill:#000000;fill-opacity:1;fill-rule:nonzero;stroke:none"
         d="m 84.2773,148.137 -10.6054,-7.699 1.3125,-3.102 12.8906,2.312 -11.7578,-4.98 1.3203,-3.105 15.0859,6.398 -1.9804,4.676 -13.1328,-2.442 10.8515,7.825 -1.9687,4.636 -15.086,-6.394 1.3125,-3.11 11.7578,4.985" /><path
         id="path34"
         style="fill:none;stroke:#231f20;stroke-width:1.12416005;stroke-linecap:butt;stroke-linejoin:miter;stroke-miterlimit:10;stroke-dasharray:none;stroke-opacity:1"
         d="m 84.2773,148.137 -10.6054,-7.699 1.3125,-3.102 12.8906,2.312 -11.7578,-4.98 1.3203,-3.105 15.0859,6.398 -1.9804,4.676 -13.1328,-2.442 10.8515,7.825 -1.9687,4.636 -15.086,-6.394 1.3125,-3.11 z" /><path
         id="path36"
         style="fill:#000000;fill-opacity:1;fill-rule:nonzero;stroke:none"
         d="m 88.375,129.309 4.3984,-6.528 2.3321,1.582 -4.3985,6.516 3.0821,2.082 4.75,-7.043 2.3359,1.57 -6.6406,9.848 -13.6133,-9.191 6.8633,-10.176 2.3398,1.582 -4.9804,7.375 3.5312,2.383" /><path
         id="path38"
         style="fill:none;stroke:#231f20;stroke-width:1.12641001;stroke-linecap:butt;stroke-linejoin:miter;stroke-miterlimit:10;stroke-dasharray:none;stroke-opacity:1"
         d="m 88.375,129.309 4.3984,-6.528 2.3321,1.582 -4.3985,6.516 3.0821,2.082 4.75,-7.043 2.3359,1.57 -6.6406,9.848 -13.6133,-9.191 6.8633,-10.176 2.3398,1.582 -4.9804,7.375 z" /><path
         id="path40"
         style="fill:#000000;fill-opacity:1;fill-rule:nonzero;stroke:none"
         d="m 96.957,115.684 2.4375,-3.02 c 0.9215,-1.141 0.8635,-2 -0.2109,-2.859 -0.1016,-0.086 -0.2773,-0.235 -0.5234,-0.403 -0.3438,-0.242 -0.6641,-0.507 -0.8516,-0.664 -1.1914,-0.957 -1.5234,-1.336 -1.8711,-2.168 l 2.2852,-2.832 0.4726,0.395 c -0.0976,0.586 0.0391,0.957 0.6016,1.402 3.7151,3.117 3.8321,3.332 3.2191,5.528 1.722,-0.985 3.339,-0.868 4.902,0.402 1.016,0.82 1.664,1.926 1.801,3.047 0.129,1.054 -0.242,2.09 -1.121,3.183 l -5.543,6.856 -12.7933,-10.332 2.125,-2.625 z m 2.1953,1.777 3.3317,2.684 2.567,-3.172 c 0.609,-0.75 0.793,-1.121 0.785,-1.653 -0.008,-0.535 -0.316,-1.043 -0.914,-1.519 -0.613,-0.5 -1.25,-0.727 -1.754,-0.637 -0.473,0.078 -0.844,0.359 -1.449,1.113 l -2.5667,3.184" /><path
         id="path42"
         style="fill:none;stroke:#231f20;stroke-width:1.12797999;stroke-linecap:butt;stroke-linejoin:miter;stroke-miterlimit:10;stroke-dasharray:none;stroke-opacity:1"
         d="m 96.957,115.684 2.4375,-3.02 c 0.9215,-1.141 0.8635,-2 -0.2109,-2.859 -0.1016,-0.086 -0.2773,-0.235 -0.5234,-0.403 -0.3438,-0.242 -0.6641,-0.507 -0.8516,-0.664 -1.1914,-0.957 -1.5234,-1.336 -1.8711,-2.168 l 2.2852,-2.832 0.4726,0.395 c -0.0976,0.586 0.0391,0.957 0.6016,1.402 3.7151,3.117 3.8321,3.332 3.2191,5.528 1.722,-0.985 3.339,-0.868 4.902,0.402 1.016,0.82 1.664,1.926 1.801,3.047 0.129,1.054 -0.242,2.09 -1.121,3.183 l -5.543,6.856 -12.7933,-10.332 2.125,-2.625 z m 2.1953,1.777 3.3317,2.684 2.567,-3.172 c 0.609,-0.75 0.793,-1.121 0.785,-1.653 -0.008,-0.535 -0.316,-1.043 -0.914,-1.519 -0.613,-0.5 -1.25,-0.727 -1.754,-0.637 -0.473,0.078 -0.844,0.359 -1.449,1.113 z" /><path
         id="path44"
         style="fill:#000000;fill-opacity:1;fill-rule:nonzero;stroke:none"
         d="m 118.375,100.918 c 1.012,1.113 1.426,2.07 1.426,3.281 0,1.641 -0.914,3.34 -2.66,4.922 -2.911,2.637 -5.832,2.805 -7.969,0.43 -1.707,-1.875 -1.59,-3.653 0.457,-6.348 l 1.394,-1.875 c 1.379,-1.8241 1.575,-2.8436 0.688,-3.828 -0.926,-1.0156 -2.414,-0.7891 -3.93,0.5859 -1.695,1.5313 -2,3.1131 -0.906,4.4801 l -2.434,2.207 c -2.199,-2.734 -1.699,-5.7574 1.399,-8.5621 3.129,-2.8437 6.305,-3.0468 8.535,-0.5859 1.734,1.9141 1.676,3.7891 -0.18,6.262 l -1.566,2.078 c -1.469,1.965 -1.668,2.781 -0.871,3.672 0.832,0.91 2.172,0.754 3.457,-0.41 1.582,-1.426 1.859,-2.891 0.832,-4.2 l 2.328,-2.109" /><path
         id="path46"
         style="fill:none;stroke:#231f20;stroke-width:1.12302995;stroke-linecap:butt;stroke-linejoin:miter;stroke-miterlimit:10;stroke-dasharray:none;stroke-opacity:1"
         d="m 118.375,100.918 c 1.012,1.113 1.426,2.07 1.426,3.281 0,1.641 -0.914,3.34 -2.66,4.922 -2.911,2.637 -5.832,2.805 -7.969,0.43 -1.707,-1.875 -1.59,-3.653 0.457,-6.348 l 1.394,-1.875 c 1.379,-1.8241 1.575,-2.8436 0.688,-3.828 -0.926,-1.0156 -2.414,-0.7891 -3.93,0.5859 -1.695,1.5313 -2,3.1131 -0.906,4.4801 l -2.434,2.207 c -2.199,-2.734 -1.699,-5.7574 1.399,-8.5621 3.129,-2.8437 6.305,-3.0468 8.535,-0.5859 1.734,1.9141 1.676,3.7891 -0.18,6.262 l -1.566,2.078 c -1.469,1.965 -1.668,2.781 -0.871,3.672 0.832,0.91 2.172,0.754 3.457,-0.41 1.582,-1.426 1.859,-2.891 0.832,-4.2 z" /><g
         transform="scale(10)"
         id="g48" /><path
         id="path50"
         style="fill:#000000;fill-opacity:1;fill-rule:nonzero;stroke:none"
         d="m 140.215,90.3516 4.359,-2.0118 1.184,2.5586 -11.957,5.5157 -1.184,-2.5586 4.528,-2.086 -5.707,-12.3672 3.07,-1.414 5.707,12.3633" /><path
         id="path52"
         style="fill:none;stroke:#231f20;stroke-width:1.12752998;stroke-linecap:butt;stroke-linejoin:miter;stroke-miterlimit:10;stroke-dasharray:none;stroke-opacity:1"
         d="m 140.215,90.3516 4.359,-2.0118 1.184,2.5586 -11.957,5.5157 -1.184,-2.5586 4.528,-2.086 -5.707,-12.3672 3.07,-1.414 z" /><path
         id="path54"
         style="fill:#000000;fill-opacity:1;fill-rule:nonzero;stroke:none"
         d="m 148.852,79.6406 7.461,-2.6015 0.929,2.6797 -7.461,2.5859 1.227,3.5234 8.055,-2.7929 0.925,2.6679 -11.261,3.9141 -5.411,-15.5859 11.645,-4.043 0.934,2.6758 -8.45,2.9336 1.407,4.0429" /><path
         id="path56"
         style="fill:none;stroke:#231f20;stroke-width:1.13138998;stroke-linecap:butt;stroke-linejoin:miter;stroke-miterlimit:10;stroke-dasharray:none;stroke-opacity:1"
         d="m 148.852,79.6406 7.461,-2.6015 0.929,2.6797 -7.461,2.5859 1.227,3.5234 8.055,-2.7929 0.925,2.6679 -11.261,3.9141 -5.411,-15.5859 11.645,-4.043 0.934,2.6758 -8.45,2.9336 z" /><path
         id="path58"
         style="fill:#000000;fill-opacity:1;fill-rule:nonzero;stroke:none"
         d="m 163.496,73.1445 1.953,1.4336 4.039,-8.0078 3.946,-0.6914 -5.512,10.3906 7.621,5.8086 -3.906,0.6758 -7.504,-5.9687 1.219,7.0625 -3.305,0.5664 -2.789,-16.0743 3.305,-0.5742 0.933,5.3789" /><path
         id="path60"
         style="fill:none;stroke:#231f20;stroke-width:1.11897004;stroke-linecap:butt;stroke-linejoin:miter;stroke-miterlimit:10;stroke-dasharray:none;stroke-opacity:1"
         d="m 163.496,73.1445 1.953,1.4336 4.039,-8.0078 3.946,-0.6914 -5.512,10.3906 7.621,5.8086 -3.906,0.6758 -7.504,-5.9687 1.219,7.0625 -3.305,0.5664 -2.789,-16.0743 3.305,-0.5742 z" /><path
         id="path62"
         style="fill:#000000;fill-opacity:1;fill-rule:nonzero;stroke:none"
         d="m 186.121,65.2813 3.383,-0.1055 0.484,16.4062 -3.371,0.0977 -0.34,-11.1524 -6.164,11.3477 -3.468,0.1055 -0.489,-16.4063 3.375,-0.0937 0.336,11.3359 6.254,-11.5351" /><path
         id="path64"
         style="fill:none;stroke:#231f20;stroke-width:1.12550998;stroke-linecap:butt;stroke-linejoin:miter;stroke-miterlimit:10;stroke-dasharray:none;stroke-opacity:1"
         d="m 186.121,65.2813 3.383,-0.1055 0.484,16.4062 -3.371,0.0977 -0.34,-11.1524 -6.164,11.3477 -3.468,0.1055 -0.489,-16.4063 3.375,-0.0937 0.336,11.3359 z" /><path
         id="path66"
         style="fill:#000000;fill-opacity:1;fill-rule:nonzero;stroke:none"
         d="m 197.266,81.3672 -3.371,-0.2461 1.144,-16.3945 3.379,0.2343 -1.152,16.4063" /><path
         id="path68"
         style="fill:none;stroke:#231f20;stroke-width:1.12775004;stroke-linecap:butt;stroke-linejoin:miter;stroke-miterlimit:10;stroke-dasharray:none;stroke-opacity:1"
         d="m 197.266,81.3672 -3.371,-0.2461 1.144,-16.3945 3.379,0.2343 z" /><path
         id="path70"
         style="fill:#000000;fill-opacity:1;fill-rule:nonzero;stroke:none"
         d="m 213.066,79.1328 c -0.253,1.4727 -0.753,2.3828 -1.699,3.125 -1.289,1.0039 -3.183,1.336 -5.5,0.9336 -3.855,-0.6719 -5.769,-2.8594 -5.222,-5.9961 0.429,-2.4883 1.894,-3.4844 5.261,-3.5351 l 2.324,-0.0469 c 2.29,-0.0391 3.208,-0.5156 3.43,-1.8164 0.235,-1.3477 -0.859,-2.3711 -2.859,-2.7266 -2.258,-0.3867 -3.672,0.3438 -4.082,2.043 l -3.227,-0.5547 c 0.805,-3.4102 3.488,-4.875 7.59,-4.1641 4.141,0.7227 6.25,3.086 5.684,6.3477 -0.442,2.5391 -1.946,3.6367 -5.02,3.6953 l -2.598,0.0469 c -2.441,0.0586 -3.203,0.4023 -3.41,1.5742 -0.215,1.2109 0.735,2.168 2.434,2.4609 2.098,0.3594 3.418,-0.3164 3.808,-1.9257 l 3.086,0.539" /><path
         id="path72"
         style="fill:none;stroke:#231f20;stroke-width:1.11897004;stroke-linecap:butt;stroke-linejoin:miter;stroke-miterlimit:10;stroke-dasharray:none;stroke-opacity:1"
         d="m 213.066,79.1328 c -0.253,1.4727 -0.753,2.3828 -1.699,3.125 -1.289,1.0039 -3.183,1.336 -5.5,0.9336 -3.855,-0.6719 -5.769,-2.8594 -5.222,-5.9961 0.429,-2.4883 1.894,-3.4844 5.261,-3.5351 l 2.324,-0.0469 c 2.29,-0.0391 3.208,-0.5156 3.43,-1.8164 0.235,-1.3477 -0.859,-2.3711 -2.859,-2.7266 -2.258,-0.3867 -3.672,0.3438 -4.082,2.043 l -3.227,-0.5547 c 0.805,-3.4102 3.488,-4.875 7.59,-4.1641 4.141,0.7227 6.25,3.086 5.684,6.3477 -0.442,2.5391 -1.946,3.6367 -5.02,3.6953 l -2.598,0.0469 c -2.441,0.0586 -3.203,0.4023 -3.41,1.5742 -0.215,1.2109 0.735,2.168 2.434,2.4609 2.098,0.3594 3.418,-0.3164 3.808,-1.9257 z" /><path
         id="path74"
         style="fill:#000000;fill-opacity:1;fill-rule:nonzero;stroke:none"
         d="m 220.715,74.4023 1.055,2.1915 7.351,-5.2149 3.828,1.25 -9.773,6.6172 4.031,8.7422 -3.789,-1.2305 -3.855,-8.8281 -2.239,6.8359 -3.203,-1.0429 5.09,-15.5782 3.199,1.043 -1.695,5.2148" /><path
         id="path76"
         style="fill:none;stroke:#231f20;stroke-width:1.12421;stroke-linecap:butt;stroke-linejoin:miter;stroke-miterlimit:10;stroke-dasharray:none;stroke-opacity:1"
         d="m 220.715,74.4023 1.055,2.1915 7.351,-5.2149 3.828,1.25 -9.773,6.6172 4.031,8.7422 -3.789,-1.2305 -3.855,-8.8281 -2.239,6.8359 -3.203,-1.0429 5.09,-15.5782 3.199,1.043 z" /><path
         id="path78"
         style="fill:#000000;fill-opacity:1;fill-rule:nonzero;stroke:none"
         d="m 244.316,81.5625 2.422,-2.5 3.125,1.5234 -12.324,12.2657 -3.359,-1.6407 1.972,-17.3242 3.094,1.5117 -0.457,3.4571 z m -2.07,2.1289 -3.848,-1.8828 -0.898,6.707 z" /><path
         id="path80"
         style="fill:none;stroke:#231f20;stroke-width:1.12702;stroke-linecap:butt;stroke-linejoin:miter;stroke-miterlimit:10;stroke-dasharray:none;stroke-opacity:1"
         d="m 244.316,81.5625 2.422,-2.5 3.125,1.5234 -12.324,12.2657 -3.359,-1.6407 1.972,-17.3242 3.094,1.5117 -0.457,3.4571 z m -2.07,2.1289 -3.848,-1.8828 -0.898,6.707 z" /><path
         id="path82"
         style="fill:#000000;fill-opacity:1;fill-rule:nonzero;stroke:none"
         d="m 268.645,102.656 4.761,-5.7302 2.602,2.1562 -10.5,12.637 -2.617,-2.18 3.933,-4.726 -4.988,-4.149 -3.938,4.727 -2.593,-2.161 10.496,-12.6245 2.597,2.1601 -4.765,5.7305 5.012,4.1599" /><path
         id="path84"
         style="fill:none;stroke:#231f20;stroke-width:1.12641001;stroke-linecap:butt;stroke-linejoin:miter;stroke-miterlimit:10;stroke-dasharray:none;stroke-opacity:1"
         d="m 268.645,102.656 4.761,-5.7302 2.602,2.1562 -10.5,12.637 -2.617,-2.18 3.933,-4.726 -4.988,-4.149 -3.938,4.727 -2.593,-2.161 10.496,-12.6245 2.597,2.1601 -4.765,5.7305 z" /><path
         id="path86"
         style="fill:#000000;fill-opacity:1;fill-rule:nonzero;stroke:none"
         d="m 268.594,121.406 -1.66,-1.836 2.031,-1.836 1.66,1.829 z m 2.801,3.098 -1.661,-1.84 2.036,-1.836 1.66,1.828 z m 0.773,-5.219 c -1.543,-1.695 -2.234,-3.601 -2.063,-5.64 0.188,-2.141 1.333,-4.297 3.149,-5.942 1.812,-1.64 4.082,-2.574 6.211,-2.539 2.09,0.024 3.875,0.891 5.437,2.629 1.575,1.727 2.254,3.594 2.071,5.664 -0.164,2.063 -1.336,4.309 -3.059,5.859 -1.894,1.719 -4.148,2.637 -6.297,2.618 -2.109,-0.032 -3.867,-0.899 -5.449,-2.649 z m 2.148,-1.914 c 1.856,2.055 4.688,1.848 7.325,-0.535 2.48,-2.246 2.937,-5.117 1.132,-7.117 -1.828,-2.016 -4.714,-1.828 -7.265,0.476 -2.539,2.317 -3.02,5.164 -1.192,7.176" /><path
         id="path88"
         style="fill:none;stroke:#231f20;stroke-width:1.12302995;stroke-linecap:butt;stroke-linejoin:miter;stroke-miterlimit:10;stroke-dasharray:none;stroke-opacity:1"
         d="m 268.594,121.406 -1.66,-1.836 2.031,-1.836 1.66,1.829 z m 2.801,3.098 -1.661,-1.84 2.036,-1.836 1.66,1.828 z m 0.773,-5.219 c -1.543,-1.695 -2.234,-3.601 -2.063,-5.64 0.188,-2.141 1.333,-4.297 3.149,-5.942 1.812,-1.64 4.082,-2.574 6.211,-2.539 2.09,0.024 3.875,0.891 5.437,2.629 1.575,1.727 2.254,3.594 2.071,5.664 -0.164,2.063 -1.336,4.309 -3.059,5.859 -1.894,1.719 -4.148,2.637 -6.297,2.618 -2.109,-0.032 -3.867,-0.899 -5.449,-2.649 z m 2.148,-1.914 c 1.856,2.055 4.688,1.848 7.325,-0.535 2.48,-2.246 2.937,-5.117 1.132,-7.117 -1.828,-2.016 -4.714,-1.828 -7.265,0.476 -2.539,2.317 -3.02,5.164 -1.192,7.176 z" /><path
         id="path90"
         style="fill:#000000;fill-opacity:1;fill-rule:nonzero;stroke:none"
         d="m 291.953,133.953 -3.293,-5.723 2.453,-1.406 1.867,3.254 c 0.758,-0.539 1.129,-1.015 1.395,-1.738 0.461,-1.199 0.352,-2.57 -0.305,-3.699 -1.367,-2.375 -4.414,-2.883 -7.351,-1.196 -3.074,1.77 -4.074,4.336 -2.637,6.828 0.586,1.016 1.367,1.707 2.313,2.032 0.585,0.207 1.046,0.234 1.933,0.058 l 1.582,2.766 c -3.133,1.324 -6.363,0.008 -8.347,-3.441 -2.364,-4.11 -0.938,-8.653 3.503,-11.2 4.329,-2.492 9.106,-1.484 11.321,2.371 1.101,1.926 1.164,3.606 0.183,5.625 l 2.082,-0.718 1.004,1.754 -7.703,4.433" /><path
         id="path92"
         style="fill:none;stroke:#231f20;stroke-width:1.12887001;stroke-linecap:butt;stroke-linejoin:miter;stroke-miterlimit:10;stroke-dasharray:none;stroke-opacity:1"
         d="m 291.953,133.953 -3.293,-5.723 2.453,-1.406 1.867,3.254 c 0.758,-0.539 1.129,-1.015 1.395,-1.738 0.461,-1.199 0.352,-2.57 -0.305,-3.699 -1.367,-2.375 -4.414,-2.883 -7.351,-1.196 -3.074,1.77 -4.074,4.336 -2.637,6.828 0.586,1.016 1.367,1.707 2.313,2.032 0.585,0.207 1.046,0.234 1.933,0.058 l 1.582,2.766 c -3.133,1.324 -6.363,0.008 -8.347,-3.441 -2.364,-4.11 -0.938,-8.653 3.503,-11.2 4.329,-2.492 9.106,-1.484 11.321,2.371 1.101,1.926 1.164,3.606 0.183,5.625 l 2.082,-0.718 1.004,1.754 z" /><path
         id="path94"
         style="fill:#000000;fill-opacity:1;fill-rule:nonzero;stroke:none"
         d="m 295.977,149.844 c -1.368,0.636 -2.414,0.742 -3.575,0.383 -1.562,-0.493 -2.922,-1.875 -3.918,-4.028 -1.648,-3.582 -0.925,-6.426 1.985,-7.769 2.312,-1.067 3.972,-0.422 5.945,2.351 l 1.379,1.895 c 1.328,1.863 2.258,2.363 3.457,1.804 1.25,-0.574 1.484,-2.07 0.625,-3.933 -0.969,-2.09 -2.383,-2.852 -4.031,-2.219 l -1.379,-2.984 c 3.281,-1.289 6.023,0.094 7.793,3.902 1.765,3.852 1.015,6.953 -2.012,8.352 -2.351,1.086 -4.133,0.468 -5.937,-2.051 l -1.536,-2.129 c -1.433,-1.992 -2.156,-2.422 -3.242,-1.926 -1.133,0.52 -1.386,1.86 -0.652,3.43 0.898,1.941 2.219,2.656 3.777,2.058 l 1.321,2.864" /><path
         id="path96"
         style="fill:none;stroke:#231f20;stroke-width:1.12752998;stroke-linecap:butt;stroke-linejoin:miter;stroke-miterlimit:10;stroke-dasharray:none;stroke-opacity:1"
         d="m 295.977,149.844 c -1.368,0.636 -2.414,0.742 -3.575,0.383 -1.562,-0.493 -2.922,-1.875 -3.918,-4.028 -1.648,-3.582 -0.925,-6.426 1.985,-7.769 2.312,-1.067 3.972,-0.422 5.945,2.351 l 1.379,1.895 c 1.328,1.863 2.258,2.363 3.457,1.804 1.25,-0.574 1.484,-2.07 0.625,-3.933 -0.969,-2.09 -2.383,-2.852 -4.031,-2.219 l -1.379,-2.984 c 3.281,-1.289 6.023,0.094 7.793,3.902 1.765,3.852 1.015,6.953 -2.012,8.352 -2.351,1.086 -4.133,0.468 -5.937,-2.051 l -1.536,-2.129 c -1.433,-1.992 -2.156,-2.422 -3.242,-1.926 -1.133,0.52 -1.386,1.86 -0.652,3.43 0.898,1.941 2.219,2.656 3.777,2.058 z" /><path
         id="path98"
         style="fill:#000000;fill-opacity:1;fill-rule:nonzero;stroke:none"
         d="m 303.77,155 -1.211,2.109 8.457,3.133 1.125,3.867 -10.989,-4.336 -4.953,8.262 -1.109,-3.824 5.113,-8.164 -6.914,2.012 -0.945,-3.246 15.754,-4.586 0.933,3.242 -5.261,1.531" /><path
         id="path100"
         style="fill:none;stroke:#231f20;stroke-width:1.125;stroke-linecap:butt;stroke-linejoin:miter;stroke-miterlimit:10;stroke-dasharray:none;stroke-opacity:1"
         d="m 303.77,155 -1.211,2.109 8.457,3.133 1.125,3.867 -10.989,-4.336 -4.953,8.262 -1.109,-3.824 5.113,-8.164 -6.914,2.012 -0.945,-3.246 15.754,-4.586 0.933,3.242 z" /><path
         id="path102"
         style="fill:#000000;fill-opacity:1;fill-rule:nonzero;stroke:none"
         d="m 297.168,176.309 c -0.273,-2.266 0.266,-4.231 1.582,-5.789 1.387,-1.641 3.555,-2.739 5.984,-3.032 2.434,-0.3 4.829,0.246 6.536,1.504 1.691,1.223 2.644,2.961 2.918,5.285 0.285,2.317 -0.223,4.231 -1.571,5.817 -1.328,1.582 -3.586,2.738 -5.879,3.015 -2.539,0.309 -4.902,-0.242 -6.64,-1.5 -1.707,-1.238 -2.649,-2.957 -2.93,-5.3 z m 2.859,-0.325 c 0.332,2.746 2.766,4.215 6.289,3.786 3.325,-0.407 5.356,-2.473 5.024,-5.153 -0.324,-2.691 -2.785,-4.207 -6.195,-3.789 -3.407,0.41 -5.45,2.461 -5.118,5.156" /><path
         id="path104"
         style="fill:none;stroke:#231f20;stroke-width:1.12189996;stroke-linecap:butt;stroke-linejoin:miter;stroke-miterlimit:10;stroke-dasharray:none;stroke-opacity:1"
         d="m 297.168,176.309 c -0.273,-2.266 0.266,-4.231 1.582,-5.789 1.387,-1.641 3.555,-2.739 5.984,-3.032 2.434,-0.3 4.829,0.246 6.536,1.504 1.691,1.223 2.644,2.961 2.918,5.285 0.285,2.317 -0.223,4.231 -1.571,5.817 -1.328,1.582 -3.586,2.738 -5.879,3.015 -2.539,0.309 -4.902,-0.242 -6.64,-1.5 -1.707,-1.238 -2.649,-2.957 -2.93,-5.3 z m 2.859,-0.325 c 0.332,2.746 2.766,4.215 6.289,3.786 3.325,-0.407 5.356,-2.473 5.024,-5.153 -0.324,-2.691 -2.785,-4.207 -6.195,-3.789 -3.407,0.41 -5.45,2.461 -5.118,5.156 z" /><path
         id="path106"
         style="fill:#000000;fill-opacity:1;fill-rule:nonzero;stroke:none"
         d="m 299.121,189.473 0.067,-3.375 16.398,0.328 -0.227,11.23 -2.808,-0.058 0.152,-7.852 -13.582,-0.273" /><path
         id="path108"
         style="fill:none;stroke:#231f20;stroke-width:1.12521994;stroke-linecap:butt;stroke-linejoin:miter;stroke-miterlimit:10;stroke-dasharray:none;stroke-opacity:1"
         d="m 299.121,189.473 0.067,-3.375 16.398,0.328 -0.227,11.23 -2.808,-0.058 0.152,-7.852 z" /><path
         id="path110"
         style="fill:#000000;fill-opacity:1;fill-rule:nonzero;stroke:none"
         d="m 310.547,211.25 3.105,1.602 -0.554,3.437 -15.332,-8.242 0.593,-3.692 17.168,-3.144 -0.547,3.398 -3.449,0.567 z m -2.637,-1.355 0.684,-4.231 -6.692,1.082 z" /><path
         id="path112"
         style="fill:none;stroke:#231f20;stroke-width:1.12820005;stroke-linecap:butt;stroke-linejoin:miter;stroke-miterlimit:10;stroke-dasharray:none;stroke-opacity:1"
         d="m 310.547,211.25 3.105,1.602 -0.554,3.437 -15.332,-8.242 0.593,-3.692 17.168,-3.144 -0.547,3.398 -3.449,0.567 z m -2.637,-1.355 0.684,-4.231 -6.692,1.082 z" /><path
         id="path114"
         style="fill:none;stroke:#231f20;stroke-width:1.12196004;stroke-linecap:butt;stroke-linejoin:miter;stroke-miterlimit:10;stroke-dasharray:none;stroke-opacity:1"
         d="m 77.6055,247.969 4.5273,-4.473 -2.9062,-5.742 5.8554,2.922 4.6172,-4.602 -1.0781,6.328 5.7422,2.911 -6.4219,1.015 -1.1484,6.387 -2.9141,-5.774 z" /><path
         id="path116"
         style="fill:#231f20;fill-opacity:1;fill-rule:nonzero;stroke:none"
         d="m 83.8672,246.895 2.9023,5.761 1.1446,-6.367 6.4179,-0.996 -5.7304,-2.91 1.0859,-6.309 -4.6094,4.571 -5.8359,-2.918 2.8906,5.73 -4.5195,4.465 6.2539,-1.027" /><g
         transform="scale(10)"
         id="g118" /><path
         id="path120"
         style="fill:#000000;fill-opacity:1;fill-rule:nonzero;stroke:none"
         d="m 114.961,270.73 4.937,4.114 c 1.922,1.594 2.758,3.047 2.758,4.785 0.024,2.012 -0.863,4.168 -2.492,6.133 -1.609,1.933 -3.57,3.203 -5.57,3.566 -1.699,0.313 -3.254,-0.246 -5.196,-1.867 l -4.933,-4.102 z m 0.797,4.329 -6.895,8.3 2.336,1.942 c 1.961,1.633 4.067,1.066 6.383,-1.727 2.305,-2.773 2.473,-4.941 0.516,-6.57 l -2.34,-1.945" /><path
         id="path122"
         style="fill:none;stroke:#231f20;stroke-width:1.12641001;stroke-linecap:butt;stroke-linejoin:miter;stroke-miterlimit:10;stroke-dasharray:none;stroke-opacity:1"
         d="m 114.961,270.73 4.937,4.114 c 1.922,1.594 2.758,3.047 2.758,4.785 0.024,2.012 -0.863,4.168 -2.492,6.133 -1.609,1.933 -3.57,3.203 -5.57,3.566 -1.699,0.313 -3.254,-0.246 -5.196,-1.867 l -4.933,-4.102 z m 0.797,4.329 -6.895,8.3 2.336,1.942 c 1.961,1.633 4.067,1.066 6.383,-1.727 2.305,-2.773 2.473,-4.941 0.516,-6.57 z" /><path
         id="path124"
         style="fill:#000000;fill-opacity:1;fill-rule:nonzero;stroke:none"
         d="m 135.844,288.906 2.531,-2.355 3.012,1.672 -12.809,11.543 -3.246,-1.797 2.805,-17.059 2.992,1.649 -0.625,3.41 z m -2.153,2.012 -3.718,-2.051 -1.219,6.602 z" /><path
         id="path126"
         style="fill:none;stroke:#231f20;stroke-width:1.11783004;stroke-linecap:butt;stroke-linejoin:miter;stroke-miterlimit:10;stroke-dasharray:none;stroke-opacity:1"
         d="m 135.844,288.906 2.531,-2.355 3.012,1.672 -12.809,11.543 -3.246,-1.797 2.805,-17.059 2.992,1.649 -0.625,3.41 z m -2.153,2.012 -3.718,-2.051 -1.219,6.602 z" /><path
         id="path128"
         style="fill:#000000;fill-opacity:1;fill-rule:nonzero;stroke:none"
         d="m 144.789,304.375 4.457,1.738 -1.016,2.61 -12.218,-4.731 1.015,-2.613 4.621,1.785 4.895,-12.637 3.141,1.211 -4.895,12.637" /><path
         id="path130"
         style="fill:none;stroke:#231f20;stroke-width:1.12189996;stroke-linecap:butt;stroke-linejoin:miter;stroke-miterlimit:10;stroke-dasharray:none;stroke-opacity:1"
         d="m 144.789,304.375 4.457,1.738 -1.016,2.61 -12.218,-4.731 1.015,-2.613 4.621,1.785 4.895,-12.637 3.141,1.211 z" /><path
         id="path132"
         style="fill:#000000;fill-opacity:1;fill-rule:nonzero;stroke:none"
         d="m 164.836,299.316 1.769,-2.968 3.36,0.761 -9.106,14.661 -3.625,-0.821 -2.043,-17.199 3.34,0.762 0.34,3.457 z m -1.516,2.52 -4.148,-0.938 0.664,6.692 z" /><path
         id="path134"
         style="fill:none;stroke:#231f20;stroke-width:1.11897004;stroke-linecap:butt;stroke-linejoin:miter;stroke-miterlimit:10;stroke-dasharray:none;stroke-opacity:1"
         d="m 164.836,299.316 1.769,-2.968 3.36,0.761 -9.106,14.661 -3.625,-0.821 -2.043,-17.199 3.34,0.762 0.34,3.457 z m -1.516,2.52 -4.148,-0.938 0.664,6.692 z" /><path
         id="path136"
         style="fill:#000000;fill-opacity:1;fill-rule:nonzero;stroke:none"
         d="m 178.336,311.816 4.793,0.344 -0.199,2.813 -13.141,-0.93 0.199,-2.813 4.973,0.352 0.953,-13.594 3.371,0.246 -0.949,13.582" /><path
         id="path138"
         style="fill:none;stroke:#231f20;stroke-width:1.12775004;stroke-linecap:butt;stroke-linejoin:miter;stroke-miterlimit:10;stroke-dasharray:none;stroke-opacity:1"
         d="m 178.336,311.816 4.793,0.344 -0.199,2.813 -13.141,-0.93 0.199,-2.813 4.973,0.352 0.953,-13.594 3.371,0.246 z" /><path
         id="path140"
         style="fill:#000000;fill-opacity:1;fill-rule:nonzero;stroke:none"
         d="m 192.273,306.328 7.856,-0.547 0.191,2.813 -7.847,0.547 0.254,3.711 8.484,-0.586 0.195,2.812 -11.855,0.82 -1.149,-16.394 12.262,-0.859 0.195,2.812 -8.886,0.613 0.3,4.258" /><path
         id="path142"
         style="fill:none;stroke:#231f20;stroke-width:1.12775004;stroke-linecap:butt;stroke-linejoin:miter;stroke-miterlimit:10;stroke-dasharray:none;stroke-opacity:1"
         d="m 192.273,306.328 7.856,-0.547 0.191,2.813 -7.847,0.547 0.254,3.711 8.484,-0.586 0.195,2.812 -11.855,0.82 -1.149,-16.394 12.262,-0.859 0.195,2.812 -8.886,0.613 z" /><path
         id="path144"
         style="fill:#000000;fill-opacity:1;fill-rule:nonzero;stroke:none"
         d="m 208.723,302.844 2.019,1.324 3.621,-8.211 3.907,-0.879 -4.969,10.645 7.898,5.41 -3.855,0.879 -7.805,-5.567 1.582,6.981 -3.269,0.742 -3.614,-15.906 3.274,-0.742 1.211,5.324" /><path
         id="path146"
         style="fill:none;stroke:#231f20;stroke-width:1.11897004;stroke-linecap:butt;stroke-linejoin:miter;stroke-miterlimit:10;stroke-dasharray:none;stroke-opacity:1"
         d="m 208.723,302.844 2.019,1.324 3.621,-8.211 3.907,-0.879 -4.969,10.645 7.898,5.41 -3.855,0.879 -7.805,-5.567 1.582,6.981 -3.269,0.742 -3.614,-15.906 3.274,-0.742 z" /><path
         id="path148"
         style="fill:#000000;fill-opacity:1;fill-rule:nonzero;stroke:none"
         d="m 231.316,289.375 3.137,-1.25 6.074,15.254 -3.144,1.25 -4.121,-10.383 -1.922,12.785 -3.227,1.278 -6.062,-15.254 3.137,-1.239 4.199,10.547 1.929,-12.988" /><path
         id="path150"
         style="fill:none;stroke:#231f20;stroke-width:1.12600994;stroke-linecap:butt;stroke-linejoin:miter;stroke-miterlimit:10;stroke-dasharray:none;stroke-opacity:1"
         d="m 231.316,289.375 3.137,-1.25 6.074,15.254 -3.144,1.25 -4.121,-10.383 -1.922,12.785 -3.227,1.278 -6.062,-15.254 3.137,-1.239 4.199,10.547 z" /><path
         id="path152"
         style="fill:#000000;fill-opacity:1;fill-rule:nonzero;stroke:none"
         d="m 250,298.496 -2.937,1.688 -8.208,-14.266 2.942,-1.688 8.203,14.266" /><path
         id="path154"
         style="fill:none;stroke:#231f20;stroke-width:1.12887001;stroke-linecap:butt;stroke-linejoin:miter;stroke-miterlimit:10;stroke-dasharray:none;stroke-opacity:1"
         d="m 250,298.496 -2.937,1.688 -8.208,-14.266 2.942,-1.688 z" /><path
         id="path156"
         style="fill:#000000;fill-opacity:1;fill-rule:nonzero;stroke:none"
         d="m 251.941,285.098 2.407,0.429 0.086,-9.043 3.261,-2.382 -0.359,11.847 9.473,1.852 -3.235,2.355 -9.433,-2.051 4.25,5.829 -2.739,1.992 -9.675,-13.289 2.734,-1.981 3.23,4.442" /><path
         id="path158"
         style="fill:none;stroke:#231f20;stroke-width:1.12735999;stroke-linecap:butt;stroke-linejoin:miter;stroke-miterlimit:10;stroke-dasharray:none;stroke-opacity:1"
         d="m 251.941,285.098 2.407,0.429 0.086,-9.043 3.261,-2.382 -0.359,11.847 9.473,1.852 -3.235,2.355 -9.433,-2.051 4.25,5.829 -2.739,1.992 -9.675,-13.289 2.734,-1.981 z" /><g
         transform="scale(10)"
         id="g160" /><path
         id="path162"
         style="fill:none;stroke:#231f20;stroke-width:1.13060999;stroke-linecap:butt;stroke-linejoin:miter;stroke-miterlimit:10;stroke-dasharray:none;stroke-opacity:1"
         d="m 294.094,254.98 -6.242,-1.472 -3.36,5.555 -0.637,-6.563 -6.382,-1.484 5.972,-2.461 -0.586,-6.465 4.297,4.949 6.074,-2.43 -3.367,5.567 z" /><path
         id="path164"
         style="fill:#231f20;fill-opacity:1;fill-rule:nonzero;stroke:none"
         d="m 289.902,250.188 3.379,-5.579 -6.086,2.422 -4.304,-4.961 0.586,6.477 -5.997,2.461 6.407,1.492 0.617,6.582 3.379,-5.566 6.25,1.484 -4.231,-4.812" /><path
         id="path166"
         style="fill:#000000;fill-opacity:1;fill-rule:nonzero;stroke:none"
         d="M 85.625,190.625 C 85.375,247.5 131.438,293.566 188.621,293.621 244.813,293.566 290.879,247.5 290.625,190.625 290.879,134.121 244.813,88.0664 188.621,87.6289 131.438,88.0664 85.375,134.121 85.625,190.625" /><path
         id="path168"
         style="fill:none;stroke:#231f20;stroke-width:0.625;stroke-linecap:butt;stroke-linejoin:miter;stroke-miterlimit:3.8599999;stroke-dasharray:none;stroke-opacity:1"
         d="M 85.625,190.625 C 85.375,247.5 131.438,293.566 188.621,293.621 244.813,293.566 290.879,247.5 290.625,190.625 290.879,134.121 244.813,88.0664 188.621,87.6289 131.438,88.0664 85.375,134.121 85.625,190.625 Z" /><path
         id="path170"
         style="fill:#ffffff;fill-opacity:1;fill-rule:nonzero;stroke:none"
         d="m 138.621,166.621 v 0" /><path
         id="path172"
         style="fill:#f35e23;fill-opacity:1;fill-rule:nonzero;stroke:none"
         d="m 116.625,159.727 c -2.742,4.328 -4.523,14.289 -5,20 h 51.004 v 20 h -51.004 c 0.645,4.55 1.758,12.05 5,18 H 94.3359 c -6.2734,-17.844 -5.0976,-39.707 0.2891,-58 h 22" /><path
         id="path174"
         style="fill:#f35e23;fill-opacity:1;fill-rule:nonzero;stroke:none"
         d="m 118.621,156.262 c 10.281,-21.711 21.684,-26.77 22.004,-26.992 v 46.992 h 22.004 v -55.996 c -0.465,-7.461 -15.094,-20.5863 -32.004,-9.004 -15.629,9.551 -29.535,30.078 -35,45 h 22.996" /><path
         id="path176"
         style="fill:none;stroke:#231f20;stroke-width:0.55624998;stroke-linecap:butt;stroke-linejoin:miter;stroke-miterlimit:3.8599999;stroke-dasharray:none;stroke-opacity:1"
         d="m 161.625,227.629 v 0" /><path
         id="path178"
         style="fill:none;stroke:#231f20;stroke-width:0.55624998;stroke-linecap:butt;stroke-linejoin:miter;stroke-miterlimit:3.8599999;stroke-dasharray:none;stroke-opacity:1"
         d="m 148.621,231.621 v 0" /><path
         id="path180"
         style="fill:#f35e23;fill-opacity:1;fill-rule:nonzero;stroke:none"
         d="m 143.621,242.266 v 15.996 h 17.004 v 27.004 c -15.816,-4.145 -31.949,-13.43 -45,-27.004 h 9 v -17 H 103.18 c -4.1566,-7.082 -7.4066,-16.875 -8.4183,-20.996 h 65.8633 v 22 h -17.004" /><path
         id="path182"
         style="fill:none;stroke:#231f20;stroke-width:0.55624998;stroke-linecap:butt;stroke-linejoin:miter;stroke-miterlimit:3.8599999;stroke-dasharray:none;stroke-opacity:1"
         d="m 161.625,222.629 v 0" /><path
         id="path184"
         style="fill:none;stroke:#231f20;stroke-width:0.55624998;stroke-linecap:butt;stroke-linejoin:miter;stroke-miterlimit:3.8599999;stroke-dasharray:none;stroke-opacity:1"
         d="m 161.625,244.629 v 0" /><path
         id="path186"
         style="fill:#f35e23;fill-opacity:1;fill-rule:nonzero;stroke:none"
         d="m 187.629,271.621 c 45.34,-0.469 82,-37.187 82,-81.992 0,-45.274 -36.66,-81.926 -82,-82 v 163.992" /></g></g></svg>